<svg width="931" height="46" viewBox="0 0 931 46" fill="none" xmlns="http://www.w3.org/2000/svg">
<mask id="path-1-inside-1_115_1313" fill="white">
<path d="M0 0.872559H931V45.8726H0V0.872559Z"/>
</mask>
<path d="M0 0.872559H931V45.8726H0V0.872559Z" fill="white" fill-opacity="0.1"/>
<path d="M931 44.8726H0V46.8726H931V44.8726Z" fill="#FDFDFF" mask="url(#path-1-inside-1_115_1313)"/>
<path d="M16.4 28.8726V14.4726H18.57L23.55 24.6726L28.53 14.4726H30.7V28.8726H28.45V19.6426L24.03 28.8726H23.07L18.66 19.6426V28.8726H16.4ZM38.2794 29.1726C37.1994 29.1726 36.256 28.9292 35.4494 28.4426C34.6427 27.9559 34.016 27.2859 33.5694 26.4326C33.1294 25.5726 32.9094 24.5859 32.9094 23.4726C32.9094 22.3392 33.136 21.3459 33.5894 20.4926C34.0427 19.6392 34.6727 18.9726 35.4794 18.4926C36.286 18.0126 37.2194 17.7726 38.2794 17.7726C39.366 17.7726 40.3127 18.0159 41.1194 18.5026C41.926 18.9892 42.5527 19.6626 42.9994 20.5226C43.446 21.3759 43.6694 22.3592 43.6694 23.4726C43.6694 24.5926 43.4427 25.5826 42.9894 26.4426C42.5427 27.2959 41.916 27.9659 41.1094 28.4526C40.3027 28.9326 39.3594 29.1726 38.2794 29.1726ZM38.2794 26.9126C39.2394 26.9126 39.9527 26.5926 40.4194 25.9526C40.886 25.3126 41.1194 24.4859 41.1194 23.4726C41.1194 22.4259 40.8827 21.5926 40.4094 20.9726C39.936 20.3459 39.226 20.0326 38.2794 20.0326C37.6327 20.0326 37.0994 20.1792 36.6794 20.4726C36.266 20.7592 35.9594 21.1626 35.7594 21.6826C35.5594 22.1959 35.4594 22.7926 35.4594 23.4726C35.4594 24.5192 35.696 25.3559 36.1694 25.9826C36.6494 26.6026 37.3527 26.9126 38.2794 26.9126ZM57.4827 31.1426V28.8726H45.8527V18.0726H48.1627V26.7326H51.2127V18.0726H53.5227V26.7326H56.5727V18.0726H58.8827V26.7326H59.8927V31.1426H57.4827ZM61.4777 28.8726V18.0726H63.8877V22.3326H68.7377V18.0726H71.1477V28.8726H68.7377V24.5926H63.8877V28.8726H61.4777ZM78.7091 29.1726C77.6291 29.1726 76.6857 28.9292 75.8791 28.4426C75.0724 27.9559 74.4457 27.2859 73.9991 26.4326C73.5591 25.5726 73.3391 24.5859 73.3391 23.4726C73.3391 22.3392 73.5657 21.3459 74.0191 20.4926C74.4724 19.6392 75.1024 18.9726 75.9091 18.4926C76.7157 18.0126 77.6491 17.7726 78.7091 17.7726C79.7957 17.7726 80.7424 18.0159 81.5491 18.5026C82.3557 18.9892 82.9824 19.6626 83.4291 20.5226C83.8757 21.3759 84.0991 22.3592 84.0991 23.4726C84.0991 24.5926 83.8724 25.5826 83.4191 26.4426C82.9724 27.2959 82.3457 27.9659 81.5391 28.4526C80.7324 28.9326 79.7891 29.1726 78.7091 29.1726ZM78.7091 26.9126C79.6691 26.9126 80.3824 26.5926 80.8491 25.9526C81.3157 25.3126 81.5491 24.4859 81.5491 23.4726C81.5491 22.4259 81.3124 21.5926 80.8391 20.9726C80.3657 20.3459 79.6557 20.0326 78.7091 20.0326C78.0624 20.0326 77.5291 20.1792 77.1091 20.4726C76.6957 20.7592 76.3891 21.1626 76.1891 21.6826C75.9891 22.1959 75.8891 22.7926 75.8891 23.4726C75.8891 24.5192 76.1257 25.3559 76.5991 25.9826C77.0791 26.6026 77.7824 26.9126 78.7091 26.9126ZM90.9923 29.1726C89.879 29.1726 88.929 28.9259 88.1423 28.4326C87.3557 27.9326 86.7523 27.2526 86.3323 26.3926C85.919 25.5326 85.709 24.5592 85.7023 23.4726C85.709 22.3659 85.9257 21.3859 86.3523 20.5326C86.7857 19.6726 87.399 18.9992 88.1923 18.5126C88.9857 18.0192 89.929 17.7726 91.0223 17.7726C92.249 17.7726 93.2857 18.0826 94.1323 18.7026C94.9857 19.3159 95.5423 20.1559 95.8023 21.2226L93.4023 21.8726C93.2157 21.2926 92.9057 20.8426 92.4723 20.5226C92.039 20.1959 91.5457 20.0326 90.9923 20.0326C90.3657 20.0326 89.849 20.1826 89.4423 20.4826C89.0357 20.7759 88.7357 21.1826 88.5423 21.7026C88.349 22.2226 88.2523 22.8126 88.2523 23.4726C88.2523 24.4992 88.4823 25.3292 88.9423 25.9626C89.4023 26.5959 90.0857 26.9126 90.9923 26.9126C91.6323 26.9126 92.1357 26.7659 92.5023 26.4726C92.8757 26.1792 93.1557 25.7559 93.3423 25.2026L95.8023 25.7526C95.469 26.8526 94.8857 27.6992 94.0523 28.2926C93.219 28.8792 92.199 29.1726 90.9923 29.1726ZM100.458 28.8726V20.2126H96.8477V18.0726H106.478V20.2126H102.868V28.8726H100.458ZM108.363 28.8726L108.353 18.0726H110.763V21.6726H112.703C113.003 21.6726 113.339 21.6792 113.713 21.6926C114.093 21.7059 114.409 21.7359 114.663 21.7826C115.269 21.9159 115.786 22.1292 116.213 22.4226C116.646 22.7159 116.976 23.0992 117.203 23.5726C117.429 24.0459 117.543 24.6159 117.543 25.2826C117.543 26.2359 117.296 26.9992 116.803 27.5726C116.316 28.1392 115.629 28.5259 114.743 28.7326C114.476 28.7926 114.149 28.8326 113.763 28.8526C113.383 28.8659 113.039 28.8726 112.733 28.8726H108.363ZM110.763 26.9826H112.943C113.089 26.9826 113.253 26.9759 113.433 26.9626C113.613 26.9492 113.786 26.9192 113.953 26.8726C114.253 26.7926 114.516 26.6126 114.743 26.3326C114.976 26.0459 115.093 25.6959 115.093 25.2826C115.093 24.8492 114.976 24.4926 114.743 24.2126C114.509 23.9326 114.223 23.7492 113.883 23.6626C113.729 23.6226 113.569 23.5959 113.403 23.5826C113.236 23.5692 113.083 23.5626 112.943 23.5626H110.763V26.9826ZM122.944 31.2726V26.9826C123.53 26.9826 123.947 26.7826 124.194 26.3826C124.44 25.9826 124.637 25.2892 124.784 24.3026C124.877 23.7159 124.954 23.0959 125.014 22.4426C125.074 21.7892 125.124 21.0992 125.164 20.3726C125.21 19.6459 125.25 18.8792 125.284 18.0726H133.324V26.9826H134.414V31.2726H132.134V28.8726H125.214V31.2726H122.944ZM126.174 26.9826H130.924V19.9626H127.394C127.374 20.3626 127.35 20.7726 127.324 21.1926C127.297 21.6059 127.267 22.0192 127.234 22.4326C127.2 22.8459 127.164 23.2426 127.124 23.6226C127.09 23.9959 127.05 24.3426 127.004 24.6626C126.93 25.2226 126.84 25.6826 126.734 26.0426C126.627 26.4026 126.44 26.7159 126.174 26.9826ZM136.4 28.8726V18.0726H141.31C141.663 18.0726 141.993 18.0926 142.3 18.1326C142.606 18.1726 142.87 18.2226 143.09 18.2826C143.61 18.4359 144.07 18.7359 144.47 19.1826C144.87 19.6226 145.07 20.2326 145.07 21.0126C145.07 21.4726 144.996 21.8526 144.85 22.1526C144.703 22.4459 144.51 22.6926 144.27 22.8926C144.156 22.9859 144.04 23.0659 143.92 23.1326C143.8 23.1992 143.68 23.2526 143.56 23.2926C143.82 23.3326 144.066 23.4092 144.3 23.5226C144.666 23.7026 144.973 23.9692 145.22 24.3226C145.473 24.6759 145.6 25.1726 145.6 25.8126C145.6 26.5392 145.423 27.1526 145.07 27.6526C144.723 28.1459 144.213 28.4892 143.54 28.6826C143.293 28.7492 143.01 28.7992 142.69 28.8326C142.37 28.8592 142.043 28.8726 141.71 28.8726H136.4ZM138.84 27.0126H141.54C141.68 27.0126 141.833 26.9992 142 26.9726C142.166 26.9459 142.316 26.9092 142.45 26.8626C142.69 26.7759 142.863 26.6226 142.97 26.4026C143.083 26.1826 143.14 25.9526 143.14 25.7126C143.14 25.3859 143.056 25.1259 142.89 24.9326C142.73 24.7326 142.536 24.5992 142.31 24.5326C142.176 24.4792 142.03 24.4492 141.87 24.4426C141.716 24.4292 141.59 24.4226 141.49 24.4226H138.84V27.0126ZM138.84 22.5326H140.84C141.046 22.5326 141.246 22.5226 141.44 22.5026C141.64 22.4759 141.806 22.4326 141.94 22.3726C142.16 22.2859 142.32 22.1392 142.42 21.9326C142.526 21.7259 142.58 21.4959 142.58 21.2426C142.58 20.9759 142.52 20.7359 142.4 20.5226C142.286 20.3026 142.103 20.1559 141.85 20.0826C141.683 20.0159 141.48 19.9792 141.24 19.9726C141.006 19.9659 140.856 19.9626 140.79 19.9626H138.84V22.5326ZM156.951 18.0726V28.8726H154.641V21.8226L149.501 28.8726H147.571V18.0726H149.881V24.9426L155.041 18.0726H156.951ZM159.759 28.8726V18.0726H167.459V20.3326H162.169V28.8726H159.759ZM172.135 29.1726C171.355 29.1726 170.695 29.0259 170.155 28.7326C169.615 28.4326 169.205 28.0359 168.925 27.5426C168.652 27.0492 168.515 26.5059 168.515 25.9126C168.515 25.3926 168.602 24.9259 168.775 24.5126C168.948 24.0926 169.215 23.7326 169.575 23.4326C169.935 23.1259 170.402 22.8759 170.975 22.6826C171.408 22.5426 171.915 22.4159 172.495 22.3026C173.082 22.1892 173.715 22.0859 174.395 21.9926C175.082 21.8926 175.798 21.7859 176.545 21.6726L175.685 22.1626C175.692 21.4159 175.525 20.8659 175.185 20.5126C174.845 20.1592 174.272 19.9826 173.465 19.9826C172.978 19.9826 172.508 20.0959 172.055 20.3226C171.602 20.5492 171.285 20.9392 171.105 21.4926L168.905 20.8026C169.172 19.8892 169.678 19.1559 170.425 18.6026C171.178 18.0492 172.192 17.7726 173.465 17.7726C174.425 17.7726 175.268 17.9292 175.995 18.2426C176.728 18.5559 177.272 19.0692 177.625 19.7826C177.818 20.1626 177.935 20.5526 177.975 20.9526C178.015 21.3459 178.035 21.7759 178.035 22.2426V28.8726H175.925V26.5326L176.275 26.9126C175.788 27.6926 175.218 28.2659 174.565 28.6326C173.918 28.9926 173.108 29.1726 172.135 29.1726ZM172.615 27.2526C173.162 27.2526 173.628 27.1559 174.015 26.9626C174.402 26.7692 174.708 26.5326 174.935 26.2526C175.168 25.9726 175.325 25.7092 175.405 25.4626C175.532 25.1559 175.602 24.8059 175.615 24.4126C175.635 24.0126 175.645 23.6892 175.645 23.4426L176.385 23.6626C175.658 23.7759 175.035 23.8759 174.515 23.9626C173.995 24.0492 173.548 24.1326 173.175 24.2126C172.802 24.2859 172.472 24.3692 172.185 24.4626C171.905 24.5626 171.668 24.6792 171.475 24.8126C171.282 24.9459 171.132 25.0992 171.025 25.2726C170.925 25.4459 170.875 25.6492 170.875 25.8826C170.875 26.1492 170.942 26.3859 171.075 26.5926C171.208 26.7926 171.402 26.9526 171.655 27.0726C171.915 27.1926 172.235 27.2526 172.615 27.2526ZM183.348 28.8726V20.2126H179.738V18.0726H189.368V20.2126H185.758V28.8726H183.348ZM196.173 29.1726C195.08 29.1726 194.12 28.9359 193.293 28.4626C192.467 27.9892 191.82 27.3326 191.353 26.4926C190.893 25.6526 190.663 24.6859 190.663 23.5926C190.663 22.4126 190.89 21.3892 191.343 20.5226C191.797 19.6492 192.427 18.9726 193.233 18.4926C194.04 18.0126 194.973 17.7726 196.033 17.7726C197.153 17.7726 198.103 18.0359 198.883 18.5626C199.67 19.0826 200.253 19.8192 200.633 20.7726C201.013 21.7259 201.157 22.8492 201.063 24.1426H198.673V23.2626C198.667 22.0892 198.46 21.2326 198.053 20.6926C197.647 20.1526 197.007 19.8826 196.133 19.8826C195.147 19.8826 194.413 20.1892 193.933 20.8026C193.453 21.4092 193.213 22.2992 193.213 23.4726C193.213 24.5659 193.453 25.4126 193.933 26.0126C194.413 26.6126 195.113 26.9126 196.033 26.9126C196.627 26.9126 197.137 26.7826 197.563 26.5226C197.997 26.2559 198.33 25.8726 198.563 25.3726L200.943 26.0926C200.53 27.0659 199.89 27.8226 199.023 28.3626C198.163 28.9026 197.213 29.1726 196.173 29.1726ZM192.453 24.1426V22.3226H199.883V24.1426H192.453ZM202.295 28.8726V26.8526C202.688 26.9259 202.991 26.9192 203.205 26.8326C203.418 26.7392 203.578 26.5659 203.685 26.3126C203.791 26.0592 203.885 25.7226 203.965 25.3026C204.071 24.7092 204.165 24.0259 204.245 23.2526C204.331 22.4792 204.405 21.6526 204.465 20.7726C204.531 19.8926 204.591 18.9926 204.645 18.0726H212.595V28.8726H210.195V20.3326H206.765C206.731 20.7659 206.691 21.2526 206.645 21.7926C206.598 22.3259 206.548 22.8659 206.495 23.4126C206.441 23.9592 206.381 24.4792 206.315 24.9726C206.255 25.4592 206.191 25.8759 206.125 26.2226C205.971 27.0026 205.751 27.6192 205.465 28.0726C205.185 28.5259 204.791 28.8159 204.285 28.9426C203.778 29.0759 203.115 29.0526 202.295 28.8726ZM221.864 28.8726V25.2726H219.934C219.687 25.2726 219.377 25.2659 219.004 25.2526C218.637 25.2392 218.294 25.2059 217.974 25.1526C217.141 24.9992 216.451 24.6359 215.904 24.0626C215.357 23.4826 215.084 22.6959 215.084 21.7026C215.084 20.7292 215.344 19.9459 215.864 19.3526C216.384 18.7592 217.061 18.3792 217.894 18.2126C218.241 18.1392 218.597 18.0992 218.964 18.0926C219.337 18.0792 219.647 18.0726 219.894 18.0726H224.274V28.8726H221.864ZM214.804 28.8726L217.384 24.7426H219.894L217.334 28.8726H214.804ZM219.684 23.3826H221.864V19.9626H219.684C219.557 19.9626 219.404 19.9692 219.224 19.9826C219.044 19.9959 218.864 20.0259 218.684 20.0726C218.491 20.1326 218.307 20.2359 218.134 20.3826C217.961 20.5292 217.817 20.7126 217.704 20.9326C217.591 21.1526 217.534 21.4026 217.534 21.6826C217.534 22.1026 217.654 22.4526 217.894 22.7326C218.141 23.0059 218.427 23.1892 218.754 23.2826C218.914 23.3226 219.077 23.3492 219.244 23.3626C219.417 23.3759 219.564 23.3826 219.684 23.3826Z" fill="#FDFDFF"/>
<path d="M908 28.8726L901.072 21.3726L914.928 21.3726L908 28.8726Z" fill="#FDFDFF"/>
</svg>
