<svg width="257" height="51" viewBox="0 0 257 51" fill="none" xmlns="http://www.w3.org/2000/svg">
<path d="M88.2953 48.8715C87.0751 48.8715 85.9702 48.3736 85.1704 47.5695C84.3699 46.7644 83.875 45.6531 83.875 44.4261C83.875 43.1991 84.3699 42.0878 85.1696 41.2834C85.3271 41.125 85.4965 40.9784 85.676 40.8455C85.6971 41.0199 84.5667 42.5031 84.7623 44.5899C84.906 46.1229 85.7744 48.3141 88.2953 48.8715Z" fill="#202122"/>
<path d="M87.1767 46.3622C87.0479 46.2763 86.9281 46.1777 86.8191 46.0683C86.4011 45.6476 86.1424 45.067 86.1424 44.4261C86.1424 43.7852 86.4011 43.2045 86.8188 42.7845C86.9528 42.6497 87.1034 42.5311 87.2667 42.4328C86.5327 43.6754 86.5936 45.0773 87.1767 46.3622Z" fill="#202122"/>
<path d="M102.288 29.5483C102.288 26.1692 102.288 22.7903 102.288 19.4113C102.288 15.7027 102.464 14.1823 105.899 14.1823C110.152 14.1823 114.137 14.3516 118.654 14.902C113.218 15.0235 104.913 13.4653 103.703 19.6862C103.32 21.6573 102.955 24.7292 102.288 29.5483ZM131.029 14.902C136.297 14.5275 136.761 14.4743 141.51 14.7492C139.468 15.6462 133.919 15.5051 131.029 14.902ZM154.164 14.7004C163.381 13.9807 168.687 13.6377 170.698 14.5479C174.503 16.2695 167.279 22.2522 156.17 36.0846C163.837 24.1878 168.774 19.4362 168.853 17.3373C168.927 15.361 163.848 15.1325 154.164 14.7004ZM117.828 17.2929C115.732 20.0869 113.635 22.8807 111.538 25.6747C112.901 23.3605 114.934 17.2905 117.828 17.2929ZM139.324 17.3011C137.224 20.0923 135.123 22.8835 133.023 25.6747C134.389 23.3544 136.419 17.2815 139.324 17.3011ZM160.016 17.7011C157.861 20.4981 155.706 23.295 153.551 26.0919C155.01 23.6146 156.902 17.7168 160.016 17.7011Z" fill="#202122"/>
<path d="M131.904 48.3841C128.79 48.5961 126.462 46.046 127.587 43.0972C127.792 44.0848 127.887 46.9588 131.904 48.3841Z" fill="#202122"/>
<path d="M130.848 45.9892C130.646 45.8807 130.461 45.7426 130.3 45.5809C129.882 45.1603 129.623 44.5797 129.623 43.9387C129.623 43.2979 129.882 42.7172 130.3 42.2972C130.506 42.0899 130.751 41.9215 131.022 41.8043C129.548 43.214 130.451 45.4656 130.848 45.9892Z" fill="#202122"/>
<path d="M141.964 46.2626C142.627 47.2354 143.577 48.0312 144.626 48.3841C143.433 48.3841 142.35 47.9083 141.555 47.1356C141.714 46.8583 141.851 46.5664 141.964 46.2626Z" fill="#202122"/>
<path d="M143.491 45.8638C143.371 45.7825 143.256 45.6882 143.15 45.5809C142.731 45.1602 142.473 44.5797 142.473 43.9387C142.473 43.2979 142.731 42.7172 143.149 42.2971C143.309 42.136 143.493 41.9982 143.694 41.8899C142.823 42.9356 142.975 44.7583 143.491 45.8638Z" fill="#202122"/>
<path d="M136.731 39.0036C138.849 39.0036 140.747 40.2953 141.543 42.2578C140.495 40.3161 138.518 39.5883 136.71 39.8145C131.481 40.4683 131.267 47.9505 136.645 48.4902C138.244 48.6508 139.959 48.1611 141.022 47.1736C140.054 48.5987 138.454 49.4538 136.731 49.4538C135.296 49.4538 133.997 48.8686 133.057 47.9235C132.117 46.9772 131.535 45.671 131.535 44.2287C131.535 42.7867 132.117 41.4802 133.056 40.5348C133.997 39.5888 135.296 39.0036 136.731 39.0036Z" fill="#202122"/>
<path d="M136.914 41.4993C138.028 41.4993 139.016 42.1814 139.428 43.1993C138.533 41.5402 136.082 41.5934 135.171 43.0063C134.707 43.724 134.74 44.7179 135.209 45.4548C136.004 46.7 138.238 46.8457 139.156 45.767C138.65 46.5116 137.814 46.9581 136.914 46.9581C136.165 46.9581 135.487 46.6527 134.995 46.1589C134.504 45.6645 134.2 44.9822 134.2 44.2287C134.2 43.4755 134.504 42.7929 134.995 42.2992C135.487 41.8048 136.165 41.4993 136.914 41.4993Z" fill="#202122"/>
<path d="M149.316 39.0036C151.434 39.0036 153.332 40.2953 154.129 42.2578C153.08 40.3161 151.103 39.5883 149.295 39.8145C144.066 40.4683 143.852 47.9505 149.23 48.4902C150.829 48.6508 152.545 48.1611 153.608 47.1736C152.639 48.5987 151.039 49.4538 149.316 49.4538C147.882 49.4538 146.583 48.8686 145.643 47.9235C144.702 46.9772 144.12 45.671 144.12 44.2287C144.12 42.7867 144.702 41.4802 145.642 40.5348C146.583 39.5888 147.882 39.0036 149.316 39.0036Z" fill="#202122"/>
<path d="M149.5 41.4993C150.614 41.4993 151.601 42.1814 152.014 43.1993C151.118 41.5402 148.668 41.5934 147.756 43.0063C147.293 43.724 147.325 44.7179 147.795 45.4548C148.589 46.7 150.823 46.8457 151.742 45.767C151.236 46.5116 150.4 46.9581 149.5 46.9581C148.75 46.9581 148.072 46.6527 147.581 46.1589C147.089 45.6645 146.785 44.9822 146.785 44.2287C146.785 43.4755 147.089 42.7929 147.58 42.2992C148.072 41.8048 148.75 41.4993 149.5 41.4993Z" fill="#202122"/>
<path d="M93.1723 39.9808C95.2905 39.9808 97.1887 41.2725 97.985 43.235C96.9369 41.2932 94.9598 40.5655 93.1513 40.7917C87.9223 41.4455 87.7083 48.9277 93.0862 49.4674C94.6853 49.6279 96.4011 49.1383 97.464 48.1508C96.4958 49.5758 94.8955 50.431 93.1723 50.431C91.738 50.431 90.4392 49.8458 89.4991 48.9007C88.5584 47.9544 87.9765 46.6482 87.9765 45.2058C87.9765 43.7639 88.5584 42.4574 89.4982 41.512C90.4392 40.566 91.738 39.9808 93.1723 39.9808Z" fill="#202122"/>
<path d="M93.356 42.4765C94.47 42.4765 95.4574 43.1586 95.8701 44.1765C94.9747 42.5173 92.5242 42.5706 91.6123 43.9835C91.1489 44.7012 91.1814 45.6951 91.651 46.432C92.4453 47.6772 94.6795 47.8229 95.5981 46.7442C95.0922 47.4888 94.2561 47.9353 93.356 47.9353C92.6068 47.9353 91.9283 47.6299 91.4371 47.1361C90.9457 46.6417 90.6417 45.9594 90.6417 45.2058C90.6417 44.4527 90.9457 43.7701 91.4367 43.2764C91.9283 42.782 92.6068 42.4765 93.356 42.4765Z" fill="#202122"/>
<path d="M123.583 4.34796C123.872 4.02022 124.285 3.91886 124.649 3.82944C125.091 3.72078 125.462 3.62976 125.451 3.1716C124.957 3.55268 124.092 3.48036 123.123 3.39936C122.057 3.3102 120.865 3.21054 119.904 3.69327L119.937 3.66178C119.89 3.69955 119.842 3.74 119.793 3.78353C119.932 3.60106 120.082 3.44895 120.219 3.3109C120.528 2.99733 120.766 2.75634 120.638 2.39697C120.253 2.96908 119.44 3.14326 118.548 3.33433C117.383 3.58368 116.085 3.86179 115.428 5.09059C115.453 5.00965 115.497 4.90136 115.547 4.77827C115.72 4.35617 115.965 3.75998 115.744 3.49574C115.595 4.10317 114.874 4.58926 114.066 5.13369C113.177 5.7329 112.184 6.40278 111.732 7.38286C111.9 5.96534 112.858 5.1845 113.794 4.42171C114.713 3.67296 115.61 2.94161 115.718 1.64256C115.759 1.69378 115.803 1.74592 115.849 1.79982C116.166 2.17586 116.555 2.63735 116.56 3.46412C117.138 3.05155 117.818 2.81834 118.49 2.58833C119.609 2.20491 120.703 1.83041 121.251 0.648895C121.272 0.711282 121.295 0.775524 121.319 0.841927C121.491 1.31522 121.703 1.89838 121.395 2.70216C121.368 2.77309 121.334 2.83005 121.293 2.87755C121.957 2.68322 122.659 2.67779 123.352 2.67244C124.535 2.66331 125.69 2.65439 126.58 1.7067C126.58 1.77252 126.582 1.84084 126.584 1.91146C126.599 2.41517 126.618 3.03608 126.073 3.70108C126.546 3.7242 127.041 3.79483 127.547 3.8667C128.664 4.02535 129.827 4.1907 130.883 3.86789C130.814 3.9909 130.76 4.14101 130.702 4.30355C130.487 4.89999 130.212 5.66371 128.925 5.86944C129.167 5.96381 129.376 6.03381 129.584 6.10314C130.024 6.25003 130.455 6.39396 131.165 6.76044C131.046 6.87315 130.933 7.02778 130.813 7.19327C130.58 7.51312 130.318 7.87356 129.919 8.05022C130.176 8.25686 130.466 8.38203 130.771 8.51348C131.16 8.68123 131.572 8.85921 131.969 9.22977C131.862 9.28595 131.751 9.37334 131.633 9.46687C131.155 9.84439 130.55 10.322 129.533 9.25128C130.018 9.51807 130.431 9.51743 130.786 9.32335C130.499 9.18643 130.018 8.79136 129.55 8.40592C129.158 8.08396 128.775 7.76872 128.519 7.61624C129.197 7.77378 129.259 7.7119 129.58 7.39384L129.581 7.39319C129.605 7.36949 129.63 7.34438 129.657 7.31783C129.171 7.23468 128.503 6.74343 127.894 6.29576L127.893 6.29542L127.892 6.295L127.892 6.29459C127.694 6.14928 127.503 6.0086 127.326 5.88801L127.406 5.87802L127.298 5.86624C128.043 5.80799 128.511 5.4996 128.771 5.01557C128.274 5.08394 127.736 4.87473 127.131 4.63944C126.157 4.26103 125.01 3.81513 123.583 4.34796Z" fill="#E31E24"/>
<path d="M71.6953 26.8516C72.6437 27.0897 73.7253 26.9736 74.7811 26.4847C73.8391 27.2288 72.7005 27.3755 71.6518 27.1721C69.3059 26.717 68.0631 25.0242 68.0419 23.1171C68.0272 21.8151 68.756 20.3402 69.8483 18.8995C70.519 18.0148 71.4143 17.0676 72.3616 16.0653C74.4479 13.858 76.7866 11.3837 77.5342 8.72271C78.5372 5.15346 76.1573 1.46451 72.1551 2.6584C75.9366 0.592966 79.7825 4.02703 78.502 8.71695C77.7181 11.588 75.1798 14.2596 72.9362 16.6211C71.972 17.636 71.0622 18.5936 70.3694 19.4851C69.3357 20.8156 68.7094 22.2045 68.6957 23.3045C68.6759 24.8867 69.6083 26.3275 71.6953 26.8516Z" fill="#E31E24"/>
<path d="M78.2473 16.7496C77.9011 17.7294 78.14 18.7212 79.1641 19.1173C78.8939 19.4793 78.761 19.9437 78.7599 20.393C78.7596 20.579 78.7713 20.7078 78.7808 20.8127C78.8032 21.0597 78.8136 21.1748 78.6281 21.5948C78.2306 22.4947 77.6869 22.6085 76.7774 22.759C76.064 22.8773 75.8407 23.3065 75.6052 23.7593C75.4812 23.9976 75.3537 24.2425 75.1497 24.4521C74.5855 25.0313 73.4651 24.9106 73.4506 23.9313L73.4476 23.7302L73.3224 23.887C72.2904 25.1797 73.6609 26.8464 75.0822 25.9647C74.9439 26.4418 75.1155 26.9271 75.2589 27.3325C75.3908 27.7056 75.4987 28.0109 75.3193 28.1798L75.183 28.3079L75.3699 28.305C76.1092 28.293 76.2828 27.722 76.398 27.3429C76.4435 27.1931 76.48 27.0733 76.5386 27.0297C76.6306 27.3865 76.7955 27.7451 77.0298 28.0263C77.2301 28.2669 77.7071 28.5924 78.0271 28.5953L78.1171 28.5962L78.0981 28.5078C78.0724 28.3866 78.0347 28.2739 77.9986 28.1663C77.8785 27.8078 77.7769 27.5047 78.2012 27.1261C78.5952 27.5724 79.1474 27.6426 79.6793 27.4521C78.4841 26.3837 79.839 25.5067 80.7165 24.9591L80.7241 24.9544C81.441 24.5068 82.2069 24.0286 82.6103 23.5358C82.4833 23.827 82.2505 24.1076 81.9969 24.4132C81.3793 25.1576 80.6384 26.0507 81.0018 27.6076C80.6371 27.654 80.3223 27.6444 80.0453 27.3828C79.9922 27.6832 80.0758 28.0258 80.324 28.2341C79.6681 28.8338 79.0573 29.5059 79.7293 30.3999L79.7998 30.4936L79.8514 30.3882C79.8586 30.3735 79.8655 30.3594 79.872 30.3458L79.8875 30.3134C79.9671 30.1463 80.0047 30.0675 80.1848 30.0003C79.9819 31.5799 81.1084 32.2095 82.5181 32.0574C82.1956 31.7992 81.9274 31.5157 82.178 31.0752C82.3933 30.6968 82.6395 30.5238 82.8548 30.3724C83.2417 30.1004 83.5291 29.8983 83.3596 28.7019C84.202 28.6774 84.3034 29.1375 84.4276 29.8445C85.2329 29.1722 85.5809 27.7873 84.6205 27.1119C83.8722 26.5851 85.1282 24.73 86.5132 24.6749C86.6098 24.6711 86.7063 24.6692 86.8024 24.6674C87.5456 24.6531 88.2641 24.6394 88.7945 23.6959C88.1272 24.1909 87.6602 24.1698 87.1343 24.146L87.0563 24.1425C85.7725 24.0886 84.5471 24.5814 83.9463 25.7893C83.6848 26.3146 83.5725 26.874 83.8708 27.0774C84.5338 27.7466 84.6627 28.3091 84.378 28.9814C84.2782 28.6773 83.9765 28.1032 82.5959 28.2772C82.797 29.5923 82.5484 29.8495 82.1904 30.2196C82.0366 30.3787 81.8625 30.5587 81.6953 30.8525C81.4682 31.2509 81.5788 31.4785 81.6071 31.5368C81.6128 31.5485 81.6152 31.5534 81.6109 31.5515C80.5597 31.0944 80.5472 30.2182 80.8872 29.26C80.5222 29.3618 79.8499 29.8678 79.7485 30.0745C79.3862 29.4307 79.978 28.8683 80.5458 28.3553C80.5731 28.331 80.6001 28.3064 80.6271 28.282L80.6568 28.2551C80.4838 28.1756 80.2559 27.9186 80.2192 27.7136C80.405 27.8889 80.8801 27.8449 81.306 27.6987C80.8537 26.2822 81.5413 25.3897 82.1902 24.5474C82.279 24.4322 82.367 24.3179 82.4513 24.2033C83.4037 22.9092 83.2771 21.9455 83.2313 21.5963C83.2276 21.5682 83.2244 21.544 83.2224 21.524C83.756 22.667 83.0207 23.703 82.3331 24.672C81.6561 25.6259 81.0252 26.5148 81.6966 27.3767C81.5344 26.4864 81.7831 25.9812 82.1691 25.498C82.2155 25.4399 82.262 25.382 82.3085 25.324L82.3091 25.3233C83.3426 24.0359 84.3685 22.758 83.725 20.9198C83.5541 20.4317 83.2034 19.856 82.7516 19.6732C83.1493 21.9002 81.8513 22.7702 80.6379 23.5834C79.657 24.2408 78.7314 24.8611 78.8019 26.1315C78.8317 26.6636 79.0296 27.1831 79.4225 27.4026C78.8322 27.6136 78.2742 26.9097 78.0734 26.6564C78.064 26.6445 78.0553 26.6335 78.0475 26.6237C77.3422 27.2041 77.6611 27.9325 78.0277 28.523C77.7035 28.5198 77.2412 28.1674 77.0851 27.9798C76.8548 27.7037 76.6563 27.1505 76.5661 26.7587C76.3851 26.7583 76.2986 26.9636 76.1918 27.2171C76.0594 27.5312 75.8959 27.9194 75.4827 28.0816C75.7054 27.8718 75.6127 27.4905 75.5038 27.0426C75.3793 26.5308 75.2337 25.932 75.5136 25.4028C74.0879 26.5381 72.8762 25.2309 73.3787 23.9323C73.1415 25.2293 74.7241 25.2924 75.2939 24.7077C75.4532 24.5442 75.6078 24.3333 75.767 24.1163C75.8602 23.9891 75.955 23.8598 76.0532 23.7367C76.076 23.7081 76.0982 23.68 76.1199 23.6524C76.3633 23.3435 76.5565 23.0983 77.0361 23.0189C77.4209 22.9549 77.723 22.89 77.9688 22.7986C77.868 23.1433 78.1446 23.5383 78.8168 23.5676C78.2337 23.2971 78.155 22.8581 78.5664 22.4168C78.6302 22.7458 79.0604 22.963 79.7284 22.7761C78.6655 22.6498 78.7621 22.3725 78.9981 21.6955C79.0181 21.6381 79.0392 21.5776 79.0606 21.5143C79.0907 21.9807 79.6785 22.2945 80.59 21.6763C79.6701 21.8747 79.0773 21.529 79.0791 20.5813C79.08 20.0517 79.4563 19.3008 79.7214 18.9858C78.6305 18.2138 78.7225 17.6109 78.8138 17.0125L78.8196 16.9743C78.8849 16.5435 79.078 16.2 79.2583 15.8792C79.4801 15.4846 79.6828 15.1242 79.6047 14.6774C80.3654 15.1734 80.2293 16.229 79.9991 16.8824C81.0025 16.4128 81.3301 15.199 81.3638 14.048C81.4387 11.5068 81.7159 10.5905 83.8782 9.27278C82.9468 9.4287 82.1182 9.60614 81.5066 10.4183C80.8452 11.2966 80.7717 12.7934 80.7211 13.8724C80.7183 13.9311 80.7161 14.007 80.7135 14.0955C80.6972 14.6579 80.666 15.7328 80.3845 16.1841C80.5636 15.2936 80.0468 14.4859 79.1013 14.3077L78.8848 14.2669L79.0357 14.4284C79.2978 14.7093 79.1281 15.0697 78.9733 15.359C78.8946 15.5065 78.8116 15.6481 78.7292 15.7887C78.549 16.096 78.3714 16.3988 78.2473 16.7496Z" fill="#E31E24"/>
<path d="M76.5733 25.7061C76.9377 24.8045 76.7284 23.9528 76.1718 23.9856C76.8999 23.3176 77.294 24.8035 76.5733 25.7061Z" fill="#E31E24"/>
<path d="M76.1087 25.3748C76.0929 25.6732 76.0745 26.018 76.3119 26.2501C76.2504 26.1197 76.2902 25.8688 76.3345 25.59C76.3813 25.2955 76.433 24.9698 76.3753 24.7224C76.1278 23.6596 75.1061 24.5907 75.7285 25.1869C75.7193 25.0589 75.7453 24.7067 75.956 24.7971C76.1354 24.8739 76.123 25.1054 76.1087 25.3748Z" fill="#E31E24"/>
<path d="M81.4404 20.2414C81.1403 20.4509 80.8429 20.6586 80.8829 21.0788C80.2975 20.1524 80.844 19.6618 81.3151 19.2388C81.5176 19.057 81.7062 18.8877 81.7849 18.7016C82.0408 18.9126 82.1231 19.4274 81.9358 19.7739C81.8301 19.9693 81.6347 20.1058 81.4404 20.2414Z" fill="#E31E24"/>
<path d="M85.8232 16.9826C85.2177 17.3596 84.4253 17.8529 84.1907 18.6722C84.108 17.8859 84.7174 17.3043 85.3331 16.7168C85.8844 16.1907 86.4408 15.6597 86.5097 14.9726C87.3482 15.2767 88.2475 18.8709 86.4022 19.8368C87.2238 19.7216 87.7853 19.3014 88.1716 18.9711C88.3924 20.6204 87.3007 21.4031 86.0606 22.2761C83.1609 24.3174 82.6692 26.382 82.4816 27.17C82.4728 27.2068 82.4647 27.2409 82.457 27.272C82.5166 24.6618 84.1654 23.3018 85.4967 22.2036C86.3172 21.5267 87.0172 20.9493 87.1501 20.24C87.0426 20.2574 86.9326 20.2822 86.8199 20.3076C86.3629 20.4107 85.8614 20.5238 85.2982 20.1922L85.3097 20.1833C85.6508 19.9233 87.3172 18.6528 86.5573 16.3632C86.5048 16.5583 86.2002 16.7479 85.8232 16.9826Z" fill="#E31E24"/>
<path d="M81.4059 18.4237C80.6888 18.9399 79.9787 19.4511 80.0898 20.266C79.8865 19.0231 80.424 18.5377 80.9934 18.0237C81.5849 17.4897 82.2106 16.9247 82.0757 15.4472C83.3707 15.3599 84.2628 17.3779 83.7607 18.3821C83.7836 17.808 83.4631 16.8339 82.7295 16.3515C82.9593 17.3055 82.1786 17.8675 81.4059 18.4237Z" fill="#E31E24"/>
<path d="M88.149 6.1873C88.4468 4.76785 87.5797 3.57677 86.0691 3.73756C87.8501 4.83365 86.61 6.79743 85.6434 7.92885C85.2732 8.36205 84.9094 8.71074 84.5748 9.03141C83.392 10.1651 82.5747 10.9484 83.1323 13.8767C83.156 12.0153 84.5567 10.5652 86.1446 9.3373C86.339 9.18694 86.5338 9.04205 86.7251 8.89974C88.2308 7.77974 89.5211 6.81992 88.7034 4.61909C88.6824 4.70279 88.6613 4.79663 88.6388 4.89613C88.5367 5.34906 88.4081 5.91956 88.149 6.1873Z" fill="#E31E24"/>
<path d="M90.9039 5.50446C90.8482 6.66647 90.2447 7.45826 89.4315 8.10578C88.9065 8.52389 88.2803 8.85522 87.6343 9.19698C85.7926 10.1714 83.7907 11.2305 83.5181 14.6275C84.2062 11.5063 86.5709 10.7443 88.7737 10.0345C89.9531 9.65452 91.086 9.28948 91.8903 8.58533C92.9833 7.62853 93.6576 5.96584 92.8705 4.72279C92.994 5.54748 92.2924 6.30265 91.6743 6.77388C91.909 6.29638 91.9388 5.64387 91.8562 5.16778C91.6857 4.18537 91.1753 3.66165 90.252 3.37873C90.699 4.06299 90.9446 4.66402 90.9039 5.50446Z" fill="#E31E24"/>
<path d="M93.0818 11.3558C93.44 10.336 93.6026 9.15142 92.971 8.22022C92.028 10.0451 90.2357 10.5025 88.5545 10.9316C86.9464 11.3421 85.44 11.7265 84.8759 13.2571C85.4506 11.9512 87.0141 11.854 88.5693 11.7574C90.1342 11.6601 91.6907 11.5634 92.223 10.2364C91.9247 11.591 91.0813 12.3298 90.2676 13.0426C89.1924 13.9845 88.1689 14.8811 88.5221 17.0932C89.1286 16.3893 90.2248 15.9453 91.2486 15.5306C92.3209 15.0963 93.3138 14.6942 93.5819 14.0592C93.5454 15.1437 92.6548 15.5434 91.6982 15.9726C90.7979 16.3766 89.8392 16.8069 89.4793 17.859C90.0324 17.7829 91.0606 17.8287 92.1775 18.4291C91.4555 18.2647 90.7965 19.1097 89.9987 20.1326C89.0459 21.3542 87.8951 22.8296 86.2029 23.1426C88.8133 23.5687 90.4055 21.7399 91.6035 20.3637C92.3336 19.5252 92.9173 18.8547 93.4959 18.9648C93.3883 17.8379 92.6501 17.2369 91.485 17.0404C93.9046 16.2997 94.8707 15.2015 93.7869 12.4841C93.6439 13.4615 92.7929 13.835 91.8468 14.2503C91.1965 14.5358 90.5013 14.8409 89.9601 15.3755C90.0981 14.7236 90.7147 14.1456 91.3753 13.5264C92.0557 12.8886 92.7828 12.2071 93.0818 11.3558Z" fill="#E31E24"/>
<path d="M87.8909 42.6258C82.0823 37.9294 84.7834 31.8031 88.6107 27.0997C88.7937 26.8749 88.9765 26.652 89.1572 26.4316L89.1576 26.4312C91.2674 23.8586 93.0969 21.6279 91.6608 20.5944C94.4417 21.9097 92.5984 25.4305 90.1659 28.351C86.625 32.6021 82.8504 37.3044 87.8909 42.6258Z" fill="#E31E24"/>
<path d="M132.821 29.5898C133.012 29.9664 133.205 30.4409 132.864 31.047C132.725 31.2959 132.523 31.5399 132.035 31.7578C132.334 31.2757 132.43 30.9564 132.419 30.665C132.318 30.9337 131.829 31.2208 131.24 31.5668C130.77 31.8426 130.236 32.1558 129.785 32.5269C129.642 32.7045 129.46 32.8885 129.228 33.0789C129.247 33.0109 129.271 32.9454 129.295 32.8796C129.357 32.7099 129.42 32.5383 129.394 32.3167C129.021 32.5858 128.379 33.06 127.851 33.5901C127.725 33.809 127.533 34.0381 127.257 34.2983C127.627 33.5696 127.455 33.0408 127.279 32.7522C126.577 33.8612 124.461 35.242 121.899 34.8645C124.018 34.7594 125.97 33.6028 127.529 31.1057C127.568 31.2103 127.605 31.3104 127.641 31.4063C127.882 32.048 128.054 32.5064 128.044 32.9249C128.438 32.4427 128.925 32.0947 129.352 31.7889C129.734 31.5155 130.069 31.2758 130.249 31.0042C130.274 31.2747 130.266 31.5654 130.156 31.8782C130.298 31.7287 130.457 31.5789 130.637 31.4334C130.878 31.238 131.145 31.0459 131.408 30.8562C132.004 30.4259 132.584 30.0077 132.821 29.5898Z" fill="#E31E24"/>
<path d="M74.6051 27.175C73.5315 28.1185 72.0244 28.9306 70.3908 29.007C65.4729 29.2368 62.4167 23.9187 65.2954 19.5108C65.6128 19.0248 66.1643 18.4176 66.774 17.7463C67.9175 16.4872 69.2656 15.0028 69.6573 13.6704C69.9577 12.6482 69.6951 11.7151 68.345 11.0421C69.3121 11.7127 69.4004 12.6126 69.0394 13.5891C68.5731 14.8504 67.3573 16.2399 66.317 17.4289C65.7223 18.1086 65.1849 18.7227 64.8778 19.2099C61.6997 24.2506 65.1642 29.9428 70.437 29.4235C72.0879 29.2609 73.6761 28.4403 74.6051 27.175Z" fill="#E31E24"/>
<path d="M118.254 22.6304C119.949 19.522 120.974 16.2564 119.878 14.0688C119.22 12.7562 116.385 12.6107 114.46 14.2905C120.275 9.09742 123.671 14.2003 119.665 22.45C115.939 30.1244 102.78 39.8528 95.0823 36.9263C92.1512 35.8122 91.1787 33.5318 92.5712 30.2135C93.1068 28.9372 94.0366 27.4815 95.0118 25.9546C96.9743 22.8823 99.1206 19.522 98.609 16.7558C98.1854 14.4649 96.2277 12.0623 92.8481 12.298C95.1129 11.6411 99.0542 12.9063 100.047 16.628C100.752 19.273 99.1666 22.4975 97.7351 25.3802C97.4078 26.0393 97.0725 26.6879 96.7452 27.321L96.7451 27.3214C94.6118 31.4479 92.8185 34.9171 95.7869 36.3584C98.5118 37.6815 104.362 36.2814 109.209 32.9885C113.299 30.2101 116.312 26.1912 118.254 22.6304Z" fill="#E31E24"/>
<path d="M114.336 14.4026C114.377 14.3647 114.419 14.3274 114.46 14.2905C114.418 14.327 114.377 14.3644 114.336 14.4026Z" fill="#E31E24"/>
<path d="M130.555 16.5765C131.812 2.1454 114.644 -1.26345 106.466 14.5413C111.359 5.28105 125.233 0.976725 127.304 12.755C129.135 23.1703 118.813 42.3412 99.1476 45.3861C110.449 45.6379 122.927 34.9729 127.825 25.3354C129.48 22.079 130.331 19.1462 130.555 16.5765Z" fill="#E31E24"/>
<path d="M136.369 14.522C138.942 10.2103 144.318 11.6019 143.564 17.3904C142.504 25.527 131.573 35.4764 124.047 35.2944C131.554 34.4948 142.252 24.9649 141.941 16.6046C141.883 15.0483 141.286 13.671 140.192 13.3038C138.969 12.8936 137.44 13.2678 136.369 14.522Z" fill="#E31E24"/>
<path d="M140.935 32.5223C134.507 38.8864 123.907 43.7544 110.072 43.7259C126.738 44.9346 149.775 35.2779 151.378 16.4742C151.656 13.211 151.091 9.82558 149.328 7.50975C147.608 5.25216 144.739 4.01577 141.201 4.49634C138.151 4.91086 134.722 6.78594 131.225 10.3714C150.007 -5.30377 154.25 19.3388 140.935 32.5223Z" fill="#E31E24"/>
<path d="M93.8796 10.5459C93.8302 8.51954 95.5633 8.24233 96.9701 8.01729C97.6711 7.90517 98.2911 7.806 98.5692 7.50985C97.7834 9.60996 97.1245 9.66006 96.2113 9.7295C95.5911 9.77666 94.8536 9.83273 93.8796 10.5459Z" fill="#E31E24"/>
<path d="M101.534 15.4315C101.384 15.297 101.233 15.1606 101.049 14.9656C101.432 14.855 101.715 14.5604 101.966 14.2989C102.096 14.1637 102.217 14.0373 102.34 13.9499C101.74 13.528 101.366 13.3433 100.984 13.1547C100.768 13.0477 100.548 12.9395 100.284 12.786C101.155 12.597 101.461 12.0114 101.708 11.5379C101.788 11.3849 101.862 11.2435 101.947 11.1311C100.857 11.3069 99.7267 10.9843 98.6422 10.6748C97.1549 10.2504 95.7537 9.85061 94.6618 10.7941C96.1559 10.4588 97.2319 10.996 98.1455 11.4521C98.7046 11.7312 99.2029 11.98 99.6991 11.98C99.3767 12.4242 98.8713 12.6659 98.1247 12.6219C99.1569 12.8882 99.5789 13.2884 99.9512 13.6414C100.222 13.8983 100.467 14.1303 100.901 14.2675C100.497 14.5669 99.9895 14.6385 99.3484 14.3936C99.6313 14.6193 99.8151 14.7102 99.9634 14.7835C100.203 14.9018 100.35 14.9744 100.671 15.4949C100.86 15.8012 101.058 16.0778 101.253 16.2062C100.907 16.3381 100.531 16.287 100.124 15.984C100.915 17.0837 101.524 16.7256 102.005 16.4425C102.124 16.3723 102.235 16.3068 102.34 16.2692C101.997 15.8487 101.768 15.6423 101.534 15.4315Z" fill="#E31E24"/>
<path d="M98.4711 35.3175C99.7538 34.6014 100.916 33.4094 102.044 32.2522C102.132 32.162 102.22 32.072 102.307 31.9824C102.326 32.1383 102.389 32.3207 102.46 32.5253C102.712 33.2521 103.06 34.2578 101.841 35.3388C103.221 34.6429 104.264 33.6453 104.825 32.6431C105.564 34.0992 104.858 35.2531 100.989 35.9478C100.969 35.9595 100.949 35.9713 100.929 35.983L100.903 35.998L100.874 36.0147C101.442 35.5254 101.639 34.9988 101.564 34.4538C100.623 35.3659 98.1499 36.7089 95.9923 35.9816C96.1194 35.9856 96.2451 35.9837 96.3696 35.9762C96.9253 35.8727 97.3532 35.353 97.5931 34.7543C96.1459 34.9033 94.3208 34.2686 95.1104 31.9824C94.9779 33.7036 97.3013 33.8997 99.6248 33.3881C99.4774 34.0038 99.1288 34.7729 98.4711 35.3175Z" fill="#E31E24"/>
<path d="M96.2 29.9049C96.1279 31.0569 97.0545 32.0629 97.8883 32.9302C97.1593 33.1704 95.2115 33.2583 95.2115 31.7904C95.2947 32.266 95.9357 32.3505 96.4377 32.2638C95.9399 31.6119 95.4611 30.5514 96.131 29.4095C96.1392 29.3374 96.2527 29.2007 96.3618 29.072C96.402 29.0208 96.4447 28.9695 96.4899 28.918C96.5154 28.8856 96.5364 28.8566 96.5499 28.8331C96.5464 28.8427 96.5432 28.8523 96.5403 28.862L96.5499 28.8515C96.5456 28.8586 96.5414 28.8656 96.5372 28.8727C96.4381 29.2227 96.6867 29.5907 96.9478 29.9131C96.9422 29.8707 96.936 29.8258 96.9294 29.7785C96.8189 28.9843 96.6173 27.5346 97.8408 26.6016C96.918 27.5037 97.1785 29.7531 97.4797 30.9597C97.0741 30.8745 96.4206 30.4637 96.2 29.9049Z" fill="#E31E24"/>
<path d="M105.557 33.7502C105.351 34.1108 105.149 34.4624 104.746 34.7041C106.877 34.2998 107.113 33.5248 106.921 32.4919C106.123 32.7643 105.836 33.2654 105.557 33.7502Z" fill="#E31E24"/>
<path d="M146.581 3.87532C146.228 4.01849 145.82 4.18347 145.517 4.52795C146.952 3.99186 148.091 4.37725 149.057 4.70452C149.649 4.90477 150.176 5.08326 150.668 5.01557C150.408 5.4996 149.94 5.80799 149.195 5.86624C149.701 6.25618 150.966 7.21721 151.554 7.31783C151.162 7.70137 150.624 7.85435 149.895 7.68499C150.374 7.97019 151.262 8.64241 151.792 9.04357C152.03 9.22324 152.195 9.34863 152.22 9.36035C151.865 9.55443 151.452 9.55507 150.967 9.28828C151.148 9.47878 151.529 9.90736 151.92 10.3473L151.921 10.3485C152.468 10.9642 153.034 11.6017 153.1 11.6396C152.671 11.8313 152.191 11.7937 151.654 11.4394C151.957 11.8131 152.475 12.623 152.784 13.1044L152.784 13.1048C152.921 13.3188 153.017 13.4679 153.033 13.4846C152.689 13.5347 152.356 13.4117 152.044 13.0519C152.357 13.7786 152.52 15.028 152.668 16.1641C152.818 17.3144 152.953 18.3487 153.213 18.6069C152.873 18.6696 152.505 18.1687 152.241 17.8084C152.163 17.7021 152.094 17.6081 152.037 17.5444C152.725 18.7285 152.268 19.9995 151.857 21.1393C151.543 22.0131 151.256 22.8099 151.535 23.4314C151 23.3384 150.881 22.7291 150.816 22.0089C150.511 22.9817 150.137 25.7988 150.372 26.3227C149.977 26.2389 149.662 25.97 149.465 25.451C149.479 25.704 149.45 26.0523 149.42 26.4205L149.42 26.4211C149.366 27.0694 149.308 27.7796 149.469 28.1404C149.164 28.0757 148.92 27.8678 148.768 27.4667C148.833 28.6088 149.426 28.6326 149.896 28.6514C150.012 28.656 150.121 28.6604 150.212 28.6814C150.143 28.0978 150.038 27.469 149.941 26.8931L149.907 26.6889C150.198 26.9547 150.586 26.9703 150.924 26.9839C151.075 26.99 151.215 26.9956 151.333 27.0228C151.3 26.7399 151.235 26.4186 151.168 26.084C151.028 25.3923 150.877 24.6439 150.97 24.0603C151.462 24.6219 152.023 24.716 152.483 24.7933C152.552 24.8049 152.619 24.816 152.682 24.8283C151.978 23.7671 152.244 22.6255 152.516 21.4569C152.68 20.7559 152.846 20.0452 152.806 19.3362C153.505 19.7395 154.101 19.6261 154.587 19.5337C154.657 19.5204 154.724 19.5076 154.789 19.4968C153.751 18.7626 153.612 17.617 153.47 16.4442C153.363 15.5626 153.254 14.6655 152.76 13.9162C153.075 14.0469 153.395 13.9434 153.673 13.8533C153.796 13.8133 153.911 13.7761 154.014 13.7629C153.785 13.3086 153.616 13.0731 153.445 12.8327C153.335 12.6793 153.224 12.5238 153.095 12.3081C153.468 12.285 153.786 12.0729 154.068 11.8847C154.214 11.7874 154.35 11.6964 154.48 11.6414C154.016 11.1336 153.711 10.8888 153.4 10.6387C153.148 10.4363 152.891 10.2304 152.543 9.87882C152.535 9.87114 152.528 9.86512 152.52 9.86026C152.725 9.77367 152.903 9.63285 153.067 9.50374C153.185 9.41028 153.296 9.32295 153.403 9.26677C152.971 8.86338 152.693 8.67443 152.409 8.48149C152.228 8.35833 152.044 8.23346 151.816 8.05022C152.215 7.87356 152.477 7.51316 152.71 7.19331C152.83 7.02781 152.943 6.87316 153.062 6.76044C152.352 6.39396 151.921 6.25003 151.481 6.10314C151.273 6.03381 151.064 5.96381 150.822 5.86944C152.109 5.66371 152.384 4.89999 152.599 4.30356C152.657 4.14102 152.711 3.99091 152.78 3.86789C151.63 4.21956 147.96 3.71145 147.971 3.70108C148.515 3.03606 148.496 2.41543 148.481 1.91171C148.479 1.8411 148.477 1.77252 148.477 1.7067C147.587 2.65439 146.432 2.66331 145.249 2.67244C144.556 2.67779 143.854 2.68322 143.19 2.87755C143.231 2.83005 143.265 2.77309 143.292 2.70216C143.6 1.89835 143.388 1.31526 143.216 0.841956C143.192 0.775543 143.169 0.711292 143.148 0.648895C142.6 1.83041 141.506 2.20491 140.387 2.58833C139.716 2.81834 139.035 3.05155 138.457 3.46412C138.452 2.63735 138.063 2.17586 137.746 1.79982C137.7 1.74592 137.656 1.69378 137.615 1.64256C137.507 2.94161 136.61 3.67296 135.691 4.42171C134.755 5.1845 133.797 5.96534 133.629 7.38286C134.081 6.40278 135.074 5.7329 135.963 5.13369C136.771 4.58926 137.492 4.10317 137.641 3.49574C137.862 3.75998 137.617 4.35617 137.444 4.77827C137.394 4.90136 137.35 5.00965 137.325 5.09059C137.982 3.86179 139.28 3.58368 140.445 3.33433C141.337 3.14326 142.15 2.96908 142.535 2.39697C142.664 2.75633 142.425 2.99733 142.116 3.3109C141.979 3.44894 141.829 3.60106 141.69 3.78353C141.739 3.74 141.787 3.69955 141.834 3.66178L141.801 3.69327C142.762 3.21054 143.954 3.3102 145.02 3.39936C145.989 3.48036 146.854 3.55268 147.348 3.1716C147.357 3.56067 147.008 3.70202 146.581 3.87532Z" fill="#E31E24"/>
<path d="M165.858 28.8153C166.457 27.0904 168.101 26.8391 169.921 26.5608C171.144 26.3737 172.447 26.1745 173.566 25.5078C173.532 25.6441 173.509 25.7832 173.484 25.9242C173.37 26.594 173.248 27.3081 172.026 27.9847C172.711 27.9894 173.343 27.7106 173.952 27.4417C174.557 27.175 175.139 26.918 175.728 26.9577C175.7 27.0715 175.687 27.2071 175.672 27.3534C175.616 27.9099 175.544 28.6214 174.62 28.8777C175.037 29.0016 175.472 29.101 175.898 29.1983C176.408 29.3147 176.904 29.4281 177.34 29.5768C177.242 29.6601 177.149 29.771 177.05 29.8896C176.781 30.2121 176.464 30.5921 175.854 30.6314C176.006 30.7146 176.135 30.776 176.263 30.8366C176.503 30.9505 176.738 31.0621 177.104 31.3108C177.013 31.3566 176.92 31.4241 176.819 31.4963C176.415 31.7878 175.904 32.1566 175.045 31.4879C175.454 31.6391 175.804 31.611 176.104 31.454C175.786 31.3559 175.505 31.0764 175.255 30.8268C175.064 30.637 174.891 30.4646 174.732 30.402C175.332 30.4682 175.776 30.3307 176.098 30.0482C175.551 30.0152 174.239 29.2443 173.874 29.0302C173.815 28.9955 173.781 28.9754 173.779 28.9754C173.885 28.9364 174.717 28.1163 174.746 27.9892C173.172 28.6723 171.973 28.3738 171.245 28.1925C171.048 28.1433 170.885 28.1028 170.759 28.0927C171.625 27.7642 172.057 27.3016 172.258 26.7346C171.761 26.9504 171.073 27.0058 170.314 27.0671C168.801 27.1891 167.003 27.3342 165.858 28.8153Z" fill="#E31E24"/>
<path d="M166.994 34.1195C163.084 37.6947 160.633 39.9361 155.038 39.7338C160.406 41.7184 163.858 38.5659 166.278 36.3555C167.132 35.5763 167.857 34.9141 168.492 34.6355C169.557 34.1687 170.65 34.5534 171.218 35.8112C172.269 33.5727 170.561 30.8595 167.22 33.9128L166.994 34.1195Z" fill="#E31E24"/>
<path d="M159.852 31.9246C161.594 31.6844 162.9 30.8763 164.203 30.0694C165.396 29.3313 166.587 28.5942 168.109 28.2932C175.048 26.9217 177.506 34.7575 173.313 39.2924C171.424 41.3353 169.082 41.6027 167.872 40.6341C166.157 39.2609 166.965 36.4489 168.546 35.1019C167.693 36.4232 166.814 38.6592 168.299 39.8911C169.349 40.7627 171.311 40.3285 172.985 38.5186C177.076 34.0936 174.124 27.1181 168.117 28.9033C166.66 29.3361 165.675 29.9085 164.763 30.4387C163.404 31.2286 162.207 31.9246 159.852 31.9246Z" fill="#E31E24"/>
<path d="M171.127 35.9194C170.535 38.0073 168.521 36.4121 170.234 35.1758C169.905 35.8397 170.147 36.6908 171.127 35.9194Z" fill="#E31E24"/>
<path d="M177.822 35.2012C177.35 34.2289 180.075 33.3054 181.06 35.5326C181.377 36.2477 181.376 37.2049 181.244 37.8779C180.574 41.2958 175.527 42.1093 173.246 39.9902C176.131 41.4099 179.68 40.3804 180.342 37.9869C181.029 35.4996 179.377 34.6514 179.575 35.0896C180.024 36.0854 179.673 37.1815 178.871 37.7227C177.592 38.586 175.622 37.6797 175.23 36.2566C175.512 36.7128 177.727 38.2801 178.974 36.8486C180.17 35.4767 178.291 34.3042 177.822 35.2012Z" fill="#E31E24"/>
<path d="M165.033 27.4087C164.446 27.8836 164.109 28.1565 163.822 29.76C165.514 28.8886 165.75 28.3704 166.016 26.4806C165.623 26.9309 165.302 27.191 165.033 27.4087Z" fill="#E31E24"/>
<path d="M175.405 32.4825C175.479 32.6917 175.664 32.7908 175.879 32.9061C176.179 33.0669 176.537 33.2592 176.737 33.8251C175.411 34.0153 175.406 32.734 175.405 32.4882L175.405 32.4825Z" fill="#E31E24"/>
<path d="M176.275 35.6066C176.348 35.6148 176.416 35.6226 176.474 35.6387C176.334 35.0651 176.246 34.7683 175.806 34.3236C175.812 34.3771 175.818 34.4387 175.824 34.5048C175.849 34.7834 175.881 35.1412 175.976 35.3011C175.782 35.2502 175.617 35.1226 175.496 34.8917C175.61 35.5308 175.981 35.5731 176.275 35.6066Z" fill="#E31E24"/>
<path d="M11.9363 37.6471C11.5501 37.8917 11.0223 38.0977 10.3529 38.265C9.68353 38.4453 8.98195 38.5482 8.2482 38.574C7.14112 38.6126 6.14347 38.4453 5.25524 38.0719C4.367 37.7115 3.6075 37.203 2.97673 36.5465C2.35882 35.89 1.88253 35.1176 1.54783 34.2294C1.21313 33.3411 1.04578 32.3821 1.04578 31.3523C1.04578 30.3482 1.19382 29.4278 1.4899 28.591C1.78598 27.7543 2.21079 27.0334 2.76432 26.4284C3.31786 25.8362 3.98725 25.3728 4.7725 25.0381C5.57062 24.7034 6.46529 24.536 7.45651 24.536C8.15165 24.536 8.78242 24.6326 9.34883 24.8257C9.92812 25.0188 10.4173 25.2634 10.8163 25.5594C11.2283 25.8555 11.5437 26.1902 11.7625 26.5635C11.9942 26.924 12.1101 27.2844 12.1101 27.6449H10.1212C10.1212 27.4518 10.0568 27.2458 9.92811 27.027C9.81226 26.8081 9.63847 26.6022 9.40676 26.4091C9.17505 26.216 8.88541 26.0551 8.53784 25.9263C8.20314 25.7976 7.81695 25.7332 7.37927 25.7332C6.99308 25.7332 6.54897 25.8169 6.04692 25.9843C5.54488 26.1387 5.06214 26.4155 4.59872 26.8146C4.14816 27.2136 3.76841 27.7607 3.45946 28.4559C3.15051 29.1381 2.99603 30.0006 2.99603 31.0433C2.99603 31.8801 3.10545 32.6846 3.32429 33.457C3.55601 34.2165 3.8907 34.8859 4.32838 35.4652C4.77894 36.0445 5.32604 36.5079 5.96968 36.8555C6.61333 37.203 7.35996 37.3768 8.20958 37.3768C8.77599 37.3768 9.35527 37.3124 9.94743 37.1837C10.5396 37.055 11.1189 36.8555 11.6853 36.5851C11.814 36.5336 11.9299 36.5401 12.0328 36.6044C12.1358 36.6559 12.2066 36.746 12.2452 36.8748C12.2839 36.9906 12.2774 37.1258 12.2259 37.2803C12.1873 37.4219 12.0908 37.5442 11.9363 37.6471ZM16.2571 25.656V30.522H22.2623V24.7291H24.0195V38.3809H22.2623V31.7578H16.2571V38.3809H14.4999V27.278C14.4999 26.7888 14.3905 26.3898 14.1717 26.0808C13.9657 25.7719 13.6246 25.6045 13.1483 25.5788C12.9809 25.5788 12.8522 25.5401 12.7621 25.4629C12.672 25.3728 12.6269 25.2634 12.6269 25.1346C12.6269 25.0188 12.672 24.9222 12.7621 24.845C12.8651 24.7678 12.9809 24.7291 13.1096 24.7291H15.3302C15.652 24.7291 15.8838 24.8321 16.0254 25.0381C16.1798 25.2312 16.2571 25.4372 16.2571 25.656ZM29.3621 25.656V38.3809H27.605V27.278C27.605 26.7888 27.4956 26.3898 27.2767 26.0808C27.0708 25.7719 26.7296 25.6045 26.2533 25.5788C26.086 25.5788 25.9572 25.5401 25.8671 25.4629C25.777 25.3728 25.732 25.2634 25.732 25.1346C25.732 25.0188 25.777 24.9222 25.8671 24.845C25.9701 24.7678 26.086 24.7291 26.2147 24.7291H28.4353C28.7571 24.7291 28.9888 24.8321 29.1304 25.0381C29.2849 25.2312 29.3621 25.4372 29.3621 25.656ZM32.8068 38.3809V27.278C32.8068 26.7759 32.7166 26.3769 32.5364 26.0808C32.3562 25.7719 32.0344 25.6109 31.571 25.5981C31.4165 25.5981 31.2942 25.5594 31.2041 25.4822C31.1268 25.3921 31.0882 25.2827 31.0882 25.154C31.0882 25.0381 31.1268 24.9415 31.2041 24.8643C31.2813 24.7742 31.3779 24.7291 31.4937 24.7291H34.9308L40.8395 35.639V24.7291H42.307V37.4734C42.307 37.6793 42.2169 37.8789 42.0367 38.0719C41.8693 38.2779 41.6698 38.3809 41.4381 38.3809H40.6464L34.2357 26.8725V38.3809H32.8068ZM43.623 38.3809L47.6587 27.4325C47.6973 27.3166 47.7295 27.2201 47.7553 27.1428C47.781 27.0527 47.8068 26.969 47.8325 26.8918C47.8582 26.8146 47.8776 26.7373 47.8904 26.6601C47.9162 26.57 47.9355 26.4734 47.9484 26.3704C47.9484 26.2546 47.929 26.158 47.8904 26.0808C47.8518 25.9907 47.7874 25.9006 47.6973 25.8105C47.5943 25.7461 47.4656 25.6946 47.3111 25.656C47.1567 25.6174 47.0086 25.5981 46.867 25.5981C46.7254 25.5981 46.6096 25.553 46.5195 25.4629C46.4293 25.3599 46.3843 25.2441 46.3843 25.1153C46.3714 25.0123 46.41 24.9222 46.5001 24.845C46.6031 24.7549 46.7126 24.7098 46.8284 24.7098H50.2269L55.3632 38.3809H53.3936L51.733 33.9204H46.8091L45.1678 38.3809H43.623ZM49.2228 27.1235L47.2339 32.7812H51.3468L49.2228 27.1235ZM193.548 38.3809V25.907H191.791C191.585 25.907 191.412 25.9199 191.27 25.9456C191.128 25.9585 191.006 25.9843 190.903 26.0229C190.697 26.113 190.543 26.2353 190.44 26.3898C190.337 26.5314 190.259 26.6794 190.208 26.8339C190.169 27.0012 190.144 27.1686 190.131 27.3359C190.118 27.5033 190.105 27.6449 190.092 27.7607C190.066 27.8895 190.002 27.9796 189.899 28.0311C189.809 28.0825 189.712 28.1019 189.609 28.089C189.493 28.089 189.39 28.0568 189.3 27.9924C189.223 27.9281 189.191 27.8444 189.204 27.7414L189.3 24.7291H199.554L199.65 27.7414C199.637 27.8573 199.586 27.9474 199.496 28.0117C199.419 28.0632 199.328 28.089 199.225 28.089C199.11 28.089 199.007 28.0632 198.916 28.0117C198.826 27.9603 198.775 27.8766 198.762 27.7607C198.736 27.6191 198.704 27.4646 198.665 27.2973C198.64 27.1171 198.601 26.9433 198.55 26.7759C198.485 26.6086 198.408 26.4606 198.318 26.3318C198.228 26.1902 198.105 26.0872 197.951 26.0229C197.861 25.9971 197.739 25.9714 197.584 25.9456C197.43 25.9199 197.249 25.907 197.043 25.907H195.306V38.3809H193.548ZM206.151 32.4336L210.573 38.3809H208.488L204.047 32.3564C203.854 32.2019 203.783 31.9895 203.834 31.7192C203.899 31.4359 204.092 31.2943 204.414 31.2943C204.632 31.2943 204.909 31.2943 205.244 31.2943C205.579 31.2943 205.855 31.2815 206.074 31.2557C206.357 31.23 206.647 31.1721 206.943 31.0819C207.239 30.979 207.51 30.8309 207.754 30.6378C207.986 30.4319 208.179 30.1615 208.333 29.8268C208.501 29.4921 208.597 29.0673 208.623 28.5524C208.623 27.6256 208.372 26.9626 207.87 26.5635C207.368 26.1645 206.673 25.9521 205.785 25.9263C205.682 25.9263 205.54 25.9328 205.36 25.9456C205.192 25.9456 205.019 25.9456 204.838 25.9456C204.658 25.9585 204.491 25.9714 204.336 25.9843C204.182 25.9843 204.079 25.9843 204.027 25.9843C203.744 26.0229 203.558 26.113 203.467 26.2546C203.377 26.3833 203.332 26.6987 203.332 27.2007V38.3809H201.614V27.2587C201.614 26.8081 201.575 26.4992 201.498 26.3318C201.434 26.1516 201.311 25.9971 201.131 25.8684C201.067 25.8298 200.951 25.7847 200.783 25.7332C200.616 25.6817 200.474 25.6431 200.359 25.6174C200.191 25.6174 200.063 25.5723 199.972 25.4822C199.895 25.3792 199.857 25.2698 199.857 25.154C199.844 25.0638 199.876 24.9737 199.953 24.8836C200.043 24.7806 200.159 24.7291 200.301 24.7291H204.51C204.806 24.7291 205.167 24.7356 205.591 24.7485C206.029 24.7613 206.409 24.7742 206.731 24.7871C207.181 24.8128 207.632 24.9094 208.082 25.0767C208.533 25.2312 208.938 25.4629 209.299 25.7719C209.659 26.0937 209.949 26.4863 210.168 26.9497C210.387 27.4003 210.503 27.9345 210.515 28.5524C210.515 29.1188 210.4 29.6402 210.168 30.1165C209.949 30.5799 209.653 30.9854 209.28 31.333C208.906 31.6677 208.469 31.938 207.967 32.144C207.464 32.3371 206.937 32.4336 206.383 32.4336H206.151ZM212.482 25.8298C212.379 25.7654 212.244 25.7139 212.076 25.6753C211.909 25.6367 211.767 25.6174 211.652 25.6174C211.484 25.6174 211.349 25.5723 211.246 25.4822C211.156 25.3792 211.111 25.2634 211.111 25.1346C211.111 25.0188 211.156 24.9222 211.246 24.845C211.349 24.7678 211.465 24.7291 211.594 24.7291H213.834C214.155 24.7291 214.387 24.8257 214.529 25.0188C214.67 25.2119 214.741 25.4178 214.741 25.6367V33.2832C214.741 34.519 214.96 35.5038 215.398 36.2376C215.835 36.9713 216.666 37.3382 217.889 37.3382C218.519 37.3382 219.047 37.2416 219.472 37.0486C219.897 36.8555 220.238 36.5787 220.495 36.2182C220.74 35.8578 220.914 35.433 221.017 34.9438C221.133 34.4547 221.19 33.9076 221.19 33.3025V24.7291H222.677V33.2832C222.677 33.8625 222.626 34.4675 222.523 35.0983C222.42 35.7162 222.201 36.2826 221.866 36.7975C221.532 37.3253 221.049 37.7501 220.418 38.0719C219.787 38.4066 218.938 38.574 217.869 38.574C216.904 38.574 216.106 38.4324 215.475 38.1492C214.844 37.8789 214.342 37.512 213.969 37.0486C213.595 36.5851 213.338 36.0509 213.196 35.4459C213.055 34.828 212.984 34.1843 212.984 33.5149V27.2587C212.984 26.9369 212.952 26.6601 212.887 26.4284C212.836 26.1838 212.701 25.9843 212.482 25.8298ZM235.56 37.6471C235.174 37.8917 234.646 38.0977 233.976 38.265C233.307 38.4453 232.605 38.5482 231.872 38.574C230.765 38.6126 229.767 38.4453 228.879 38.0719C227.99 37.7115 227.231 37.203 226.6 36.5465C225.982 35.89 225.506 35.1176 225.171 34.2294C224.837 33.3411 224.669 32.3821 224.669 31.3523C224.669 30.3482 224.817 29.4278 225.113 28.591C225.409 27.7543 225.834 27.0334 226.388 26.4284C226.941 25.8362 227.611 25.3728 228.396 25.0381C229.194 24.7034 230.089 24.536 231.08 24.536C231.775 24.536 232.406 24.6326 232.972 24.8257C233.552 25.0188 234.041 25.2634 234.44 25.5594C234.852 25.8555 235.167 26.1902 235.386 26.5635C235.618 26.924 235.733 27.2844 235.733 27.6449H233.745C233.745 27.4518 233.68 27.2458 233.552 27.027C233.436 26.8081 233.262 26.6022 233.03 26.4091C232.798 26.216 232.509 26.0551 232.161 25.9263C231.827 25.7976 231.44 25.7332 231.003 25.7332C230.616 25.7332 230.172 25.8169 229.67 25.9843C229.168 26.1387 228.686 26.4155 228.222 26.8146C227.772 27.2136 227.392 27.7607 227.083 28.4559C226.774 29.1381 226.619 30.0006 226.619 31.0433C226.619 31.8801 226.729 32.6846 226.948 33.457C227.179 34.2165 227.514 34.8859 227.952 35.4652C228.402 36.0445 228.949 36.5079 229.593 36.8555C230.237 37.203 230.983 37.3768 231.833 37.3768C232.399 37.3768 232.979 37.3124 233.571 37.1837C234.163 37.055 234.742 36.8555 235.309 36.5851C235.437 36.5336 235.553 36.5401 235.656 36.6044C235.759 36.6559 235.83 36.746 235.869 36.8748C235.907 36.9906 235.901 37.1258 235.849 37.2803C235.811 37.4219 235.714 37.5442 235.56 37.6471ZM239.784 25.6367V30.4447L245.113 24.7291H246.079C246.285 24.7291 246.413 24.7678 246.465 24.845C246.516 24.9094 246.529 24.9802 246.504 25.0574C246.491 25.1346 246.459 25.2054 246.407 25.2698C246.356 25.3342 246.33 25.3664 246.33 25.3664L241.309 30.7923L247.585 38.3809H245.364L239.784 31.5647V38.3809H238.027V27.2587C238.027 26.7309 237.937 26.3254 237.756 26.0422C237.589 25.7461 237.235 25.5981 236.694 25.5981C236.527 25.5981 236.392 25.553 236.289 25.4629C236.199 25.3728 236.154 25.2634 236.154 25.1346C236.154 25.0188 236.199 24.9222 236.289 24.845C236.392 24.7678 236.508 24.7291 236.636 24.7291H238.876C239.198 24.7291 239.43 24.8321 239.572 25.0381C239.713 25.2312 239.784 25.4307 239.784 25.6367ZM255.22 24.9222V26.4284C255.027 26.3511 254.821 26.2675 254.603 26.1773C254.384 26.0744 254.139 25.9778 253.869 25.8877C253.598 25.8105 253.296 25.7461 252.961 25.6946C252.639 25.6302 252.285 25.5981 251.899 25.5981C251.204 25.5981 250.638 25.7654 250.2 26.1001C249.775 26.4348 249.563 26.9047 249.563 27.5097C249.563 27.9989 249.679 28.4172 249.91 28.7648C250.142 29.1124 250.567 29.4728 251.185 29.8461C251.597 30.1165 252.086 30.3932 252.652 30.6764C253.219 30.9468 253.753 31.2622 254.255 31.6226C254.77 31.983 255.201 32.4079 255.549 32.897C255.909 33.3733 256.089 33.9526 256.089 34.6349C256.089 35.5746 255.819 36.3727 255.278 37.0292C254.738 37.6729 253.985 38.1106 253.019 38.3423C252.607 38.4453 252.163 38.5096 251.687 38.5354C251.211 38.5611 250.747 38.5611 250.297 38.5354C249.859 38.5096 249.453 38.4646 249.08 38.4002C248.707 38.3358 248.424 38.265 248.23 38.1878C247.986 38.1106 247.818 37.9754 247.728 37.7823C247.638 37.5763 247.606 37.3768 247.632 37.1837C247.67 37.0035 247.761 36.8619 247.902 36.7589C248.057 36.6431 248.25 36.6237 248.481 36.701C248.765 36.8168 249.112 36.9327 249.524 37.0486C249.949 37.1644 250.387 37.2416 250.837 37.2803C251.288 37.3189 251.732 37.306 252.17 37.2416C252.62 37.1644 253.013 36.9906 253.347 36.7203C253.579 36.5401 253.785 36.2955 253.965 35.9865C254.158 35.6776 254.255 35.3107 254.255 34.8859C254.255 34.3967 254.113 33.9912 253.83 33.6694C253.547 33.3347 253.18 33.0322 252.73 32.7619C252.292 32.4915 251.796 32.2212 251.243 31.9509C250.689 31.6805 250.142 31.3458 249.601 30.9468C249.125 30.6121 248.7 30.1808 248.327 29.653C247.954 29.1253 247.767 28.5331 247.767 27.8766C247.767 26.718 248.173 25.862 248.984 25.3084C249.807 24.742 250.869 24.4588 252.17 24.4588C252.491 24.4588 252.794 24.4781 253.077 24.5167C253.373 24.5425 253.656 24.5811 253.927 24.6326C254.184 24.6841 254.416 24.7356 254.622 24.7871C254.841 24.8386 255.04 24.8836 255.22 24.9222Z" fill="#202122"/>
</svg>
