<svg width="412" height="248" viewBox="0 0 412 248" fill="none" xmlns="http://www.w3.org/2000/svg">
<path d="M86.7692 167.267C82.5074 167.267 78.6479 165.537 75.8542 162.745C73.0583 159.948 71.3296 156.088 71.3296 151.826C71.3296 147.565 73.0583 143.705 75.8516 140.911C76.4016 140.361 76.9934 139.852 77.6203 139.39C77.6942 139.996 73.7457 145.148 74.4287 152.396C74.9307 157.72 77.964 165.331 86.7692 167.267Z" fill="#202122"/>
<path d="M82.8622 158.551C82.4122 158.253 81.9938 157.91 81.6132 157.53C80.153 156.069 79.2495 154.053 79.2495 151.826C79.2495 149.601 80.153 147.584 81.6119 146.125C82.0801 145.657 82.6061 145.245 83.1765 144.903C80.6128 149.219 80.8253 154.088 82.8622 158.551Z" fill="#202122"/>
<path d="M135.646 100.152C135.646 88.4156 135.646 76.6798 135.646 64.9435C135.646 52.0623 136.26 46.7818 148.258 46.7818C163.111 46.7818 177.033 47.3696 192.81 49.2816C173.821 49.7035 144.814 44.2914 140.589 65.8982C139.25 72.7443 137.974 83.4138 135.646 100.152ZM236.035 49.2816C254.436 47.9805 256.056 47.796 272.644 48.7507C265.512 51.8662 246.128 51.3762 236.035 49.2816ZM316.843 48.5812C349.037 46.0815 367.571 44.8903 374.596 48.0517C387.886 54.0312 362.651 74.8105 323.85 122.854C350.629 81.5335 367.874 65.0298 368.15 57.7399C368.41 50.8756 350.668 50.0819 316.843 48.5812ZM189.925 57.5856C182.602 67.2899 175.279 76.9937 167.956 86.6979C172.714 78.6602 179.817 57.5772 189.925 57.5856ZM265.008 57.6141C257.672 67.3086 250.335 77.0035 242.998 86.6979C247.769 78.6389 254.86 57.5461 265.008 57.6141ZM337.282 59.0036C329.756 68.7181 322.23 78.4325 314.703 88.147C319.797 79.5428 326.408 59.0578 337.282 59.0036Z" fill="#202122"/>
<path d="M239.09 165.574C228.214 166.31 220.084 157.453 224.012 147.211C224.728 150.641 225.061 160.623 239.09 165.574Z" fill="#202122"/>
<path d="M235.402 157.256C234.695 156.879 234.051 156.399 233.489 155.838C232.028 154.377 231.125 152.36 231.125 150.134C231.125 147.908 232.028 145.891 233.487 144.432C234.207 143.712 235.063 143.128 236.01 142.72C230.86 147.617 234.015 155.437 235.402 157.256Z" fill="#202122"/>
<path d="M274.228 158.205C276.547 161.584 279.864 164.348 283.527 165.574C279.36 165.574 275.578 163.921 272.8 161.237C273.356 160.274 273.835 159.26 274.228 158.205Z" fill="#202122"/>
<path d="M279.563 156.82C279.143 156.538 278.743 156.21 278.371 155.838C276.91 154.377 276.007 152.36 276.007 150.134C276.007 147.908 276.91 145.891 278.369 144.432C278.929 143.872 279.571 143.394 280.274 143.018C277.23 146.65 277.76 152.98 279.563 156.82Z" fill="#202122"/>
<path d="M255.95 132.993C263.348 132.993 269.978 137.479 272.76 144.296C269.099 137.551 262.193 135.024 255.876 135.809C237.612 138.08 236.864 164.068 255.649 165.942C261.235 166.5 267.227 164.799 270.94 161.369C267.558 166.319 261.969 169.289 255.95 169.289C250.94 169.289 246.403 167.257 243.12 163.974C239.834 160.687 237.801 156.151 237.801 151.141C237.801 146.132 239.834 141.595 243.116 138.311C246.403 135.025 250.94 132.993 255.95 132.993Z" fill="#202122"/>
<path d="M256.591 141.661C260.482 141.661 263.931 144.03 265.373 147.566C262.245 141.803 253.686 141.988 250.501 146.895C248.882 149.388 248.995 152.84 250.636 155.4C253.41 159.725 261.214 160.231 264.423 156.484C262.656 159.07 259.735 160.621 256.591 160.621C253.974 160.621 251.605 159.56 249.889 157.845C248.172 156.128 247.111 153.758 247.111 151.141C247.111 148.525 248.172 146.154 249.887 144.439C251.605 142.722 253.974 141.661 256.591 141.661Z" fill="#202122"/>
<path d="M299.909 132.993C307.308 132.993 313.938 137.479 316.72 144.296C313.059 137.551 306.153 135.024 299.836 135.809C281.571 138.08 280.824 164.068 299.609 165.942C305.194 166.5 311.187 164.799 314.9 161.369C311.518 166.319 305.928 169.289 299.909 169.289C294.899 169.289 290.363 167.257 287.079 163.974C283.793 160.687 281.761 156.151 281.761 151.141C281.761 146.132 283.793 141.595 287.076 138.311C290.363 135.025 294.899 132.993 299.909 132.993Z" fill="#202122"/>
<path d="M300.551 141.661C304.442 141.661 307.891 144.03 309.332 147.566C306.205 141.803 297.646 141.988 294.46 146.895C292.842 149.388 292.955 152.84 294.595 155.4C297.37 159.725 305.174 160.231 308.382 156.484C306.615 159.07 303.695 160.621 300.551 160.621C297.934 160.621 295.564 159.56 293.848 157.845C292.132 156.128 291.07 153.758 291.07 151.141C291.07 148.525 292.132 146.154 293.847 144.439C295.564 142.722 297.934 141.661 300.551 141.661Z" fill="#202122"/>
<path d="M103.804 136.387C111.203 136.387 117.833 140.873 120.615 147.69C116.954 140.945 110.048 138.418 103.731 139.203C85.4664 141.474 84.719 167.462 103.504 169.336C109.089 169.894 115.082 168.193 118.795 164.763C115.413 169.713 109.823 172.683 103.804 172.683C98.7945 172.683 94.2578 170.651 90.9742 167.368C87.6883 164.081 85.6558 159.545 85.6558 154.535C85.6558 149.526 87.6883 144.989 90.9711 141.705C94.2578 138.419 98.7945 136.387 103.804 136.387Z" fill="#202122"/>
<path d="M104.446 145.055C108.337 145.055 111.786 147.424 113.228 150.96C110.1 145.197 101.541 145.382 98.3552 150.289C96.7367 152.782 96.8501 156.234 98.4904 158.794C101.265 163.119 109.069 163.625 112.277 159.878C110.51 162.464 107.59 164.015 104.446 164.015C101.829 164.015 99.4592 162.954 97.7434 161.239C96.0271 159.522 94.9653 157.152 94.9653 154.535C94.9653 151.919 96.0271 149.548 97.742 147.833C99.4592 146.116 101.829 145.055 104.446 145.055Z" fill="#202122"/>
<path d="M209.67 12.8479C210.678 11.7095 212.119 11.3575 213.391 11.0469C214.936 10.6695 216.231 10.3533 216.192 8.76205C214.468 10.0856 211.447 9.83444 208.063 9.5531C204.338 9.24345 200.174 8.89728 196.817 10.574L196.932 10.4646C196.768 10.5957 196.601 10.7363 196.43 10.8874C196.916 10.2537 197.441 9.72534 197.917 9.24587C198.999 8.15676 199.831 7.31972 199.383 6.07154C198.036 8.05863 195.196 8.6636 192.08 9.32724C188.014 10.1933 183.478 11.1593 181.183 15.4272C181.27 15.1461 181.425 14.77 181.601 14.3424C182.205 12.8764 183.058 10.8056 182.288 9.88788C181.767 11.9976 179.248 13.686 176.427 15.5769C173.323 17.6581 169.852 19.9848 168.274 23.3889C168.862 18.4655 172.208 15.7534 175.477 13.104C178.686 10.5034 181.821 7.96321 182.198 3.45128C182.341 3.62916 182.495 3.81027 182.654 3.99747C183.762 5.30356 185.122 6.90644 185.136 9.77806C187.155 8.34508 189.534 7.53506 191.879 6.73618C195.789 5.40448 199.608 4.10373 201.522 0C201.595 0.216688 201.677 0.439817 201.761 0.670451C202.363 2.31433 203.103 4.33981 202.026 7.13157C201.932 7.3779 201.813 7.57576 201.671 7.74072C203.99 7.06575 206.443 7.04692 208.862 7.02834C212.993 6.99662 217.027 6.96564 220.136 3.67405C220.137 3.90267 220.145 4.13996 220.152 4.38524C220.205 6.13476 220.269 8.29134 218.368 10.6011C220.017 10.6814 221.749 10.9267 223.515 11.1763C227.415 11.7274 231.479 12.3017 235.167 11.1805C234.927 11.6077 234.738 12.1291 234.534 12.6936C233.784 14.7652 232.823 17.4178 228.327 18.1324C229.172 18.4602 229.904 18.7033 230.63 18.9441C232.167 19.4543 233.672 19.9542 236.152 21.2271C235.735 21.6185 235.342 22.1556 234.921 22.7304C234.108 23.8413 233.192 25.0932 231.8 25.7068C232.697 26.4245 233.711 26.8593 234.775 27.3158C236.133 27.8985 237.574 28.5166 238.961 29.8037C238.587 29.9988 238.2 30.3024 237.786 30.6272C236.117 31.9385 234.004 33.5973 230.453 29.8784C232.145 30.8051 233.589 30.8028 234.829 30.1288C233.824 29.6532 232.146 28.281 230.51 26.9423C229.142 25.824 227.803 24.7291 226.909 24.1995C229.277 24.7467 229.495 24.5317 230.616 23.427L230.618 23.4248C230.701 23.3425 230.79 23.2552 230.885 23.163C229.187 22.8742 226.852 21.168 224.725 19.6131L224.723 19.6119L224.721 19.6105L224.719 19.609C224.029 19.1043 223.36 18.6157 222.742 18.1969L223.023 18.1622L222.643 18.1213C225.248 17.919 226.883 16.8478 227.789 15.1666C226.055 15.4041 224.175 14.6775 222.06 13.8603C218.659 12.5459 214.652 10.9972 209.67 12.8479Z" fill="#E31E24"/>
<path d="M28.4293 91.0093C31.7419 91.8363 35.52 91.433 39.2078 89.7349C35.9175 92.3192 31.9402 92.8287 28.2773 92.1222C20.0835 90.5415 15.7424 84.662 15.6682 78.0383C15.6171 73.5158 18.1626 68.3931 21.978 63.3892C24.3205 60.3166 27.4478 57.0266 30.7568 53.5453C38.0439 45.8789 46.2126 37.2849 48.824 28.0426C52.3274 15.6456 44.0148 2.83285 30.0354 6.97955C43.2438 -0.194258 56.6773 11.7332 52.2046 28.0225C49.4664 37.9945 40.6005 47.2736 32.7636 55.4758C29.3957 59.0007 26.2178 62.3268 23.798 65.4234C20.1875 70.0445 17.9999 74.8684 17.9518 78.6892C17.8829 84.1845 21.1395 89.1889 28.4293 91.0093Z" fill="#E31E24"/>
<path d="M51.3149 55.9223C50.1055 59.3251 50.9401 62.7701 54.5172 64.1459C53.5732 65.4033 53.109 67.016 53.1055 68.5767C53.1044 69.2229 53.1452 69.67 53.1784 70.0345C53.2565 70.8922 53.2929 71.2922 52.6448 72.751C51.2567 75.8763 49.3576 76.2716 46.1807 76.7945C43.6889 77.2053 42.909 78.696 42.0861 80.2687C41.653 81.0965 41.2079 81.9471 40.4951 82.6749C38.5244 84.6869 34.6111 84.2676 34.5605 80.8661L34.5498 80.1675L34.1127 80.7122C30.508 85.2022 35.295 90.991 40.2594 87.9287C39.7764 89.5856 40.3758 91.2715 40.8766 92.6796C41.3373 93.9752 41.7144 95.0357 41.0878 95.6223L40.6116 96.0674L41.2643 96.0572C43.8466 96.0154 44.4529 94.0324 44.8555 92.7156C45.0145 92.1954 45.1418 91.7792 45.3465 91.6277C45.668 92.8669 46.2438 94.1123 47.0624 95.0892C47.7618 95.9247 49.4279 97.0554 50.5457 97.0656L50.86 97.0687L50.7938 96.7615C50.7041 96.3405 50.5722 95.9492 50.4462 95.5753C50.0266 94.3301 49.6719 93.2777 51.154 91.9625C52.5301 93.5125 54.459 93.7566 56.3167 93.095C52.142 89.384 56.8747 86.3378 59.9396 84.4361L59.9662 84.4196C62.4703 82.865 65.1455 81.2042 66.5545 79.4926C66.1108 80.5039 65.2977 81.4784 64.412 82.54C62.2547 85.1254 59.6667 88.2273 60.936 93.6348C59.6621 93.7962 58.5625 93.7629 57.595 92.854C57.4096 93.8976 57.7017 95.0874 58.5688 95.8109C56.2775 97.894 54.1442 100.228 56.4914 103.333L56.7377 103.659L56.9178 103.293C56.9431 103.242 56.967 103.193 56.9898 103.145L57.0439 103.033C57.3221 102.453 57.4534 102.179 58.0823 101.946C57.3736 107.432 61.3086 109.619 66.2326 109.09C65.1058 108.194 64.169 107.209 65.0445 105.679C65.7966 104.365 66.6564 103.764 67.4086 103.238C68.7598 102.293 69.7638 101.591 69.1716 97.4356C72.1143 97.3507 72.4682 98.9487 72.9022 101.404C75.7149 99.0692 76.9306 94.2591 73.5758 91.9131C70.9622 90.0835 75.3495 83.6402 80.1871 83.449C80.5245 83.4356 80.8615 83.4291 81.1972 83.4228C83.793 83.3733 86.3028 83.3256 88.1555 80.0484C85.8245 81.7678 84.1932 81.6944 82.3563 81.6118L82.084 81.5997C77.5998 81.4125 73.3197 83.124 71.221 87.3196C70.3077 89.1439 69.9155 91.087 70.9573 91.7935C73.273 94.1177 73.7234 96.0714 72.7287 98.4067C72.3801 97.3502 71.3264 95.3564 66.5042 95.9607C67.2067 100.528 66.3382 101.421 65.0879 102.707C64.5505 103.26 63.9425 103.885 63.3584 104.906C62.565 106.289 62.9514 107.08 63.0504 107.282C63.0702 107.323 63.0785 107.34 63.0636 107.333C59.3918 105.745 59.3482 102.702 60.5359 99.3742C59.2611 99.7277 56.9125 101.485 56.5586 102.203C55.2931 99.9669 57.3602 98.0136 59.3433 96.2319C59.4386 96.1474 59.5331 96.0621 59.6273 95.9772L59.7311 95.8838C59.1268 95.6077 58.3309 94.7153 58.2024 94.003C58.8516 94.6121 60.511 94.4592 61.9987 93.9514C60.419 89.0314 62.8206 85.9314 65.087 83.006C65.3971 82.6058 65.7047 82.2088 65.9991 81.8109C69.3256 77.3162 68.8836 73.9688 68.7234 72.7561C68.7105 72.6584 68.6994 72.5745 68.6923 72.5051C70.5563 76.4747 67.9881 80.0732 65.5861 83.4387C63.2214 86.7519 61.0179 89.8394 63.3629 92.8331C62.7964 89.7406 63.6652 87.9861 65.0134 86.3076C65.1754 86.106 65.3379 85.9047 65.5003 85.7035L65.5026 85.7008C69.1123 81.2295 72.6956 76.7909 70.4482 70.4064C69.851 68.711 68.6261 66.7114 67.048 66.0765C68.4372 73.8117 63.9033 76.8332 59.6651 79.6577C56.2388 81.9411 53.0057 84.0957 53.2522 88.5081C53.3563 90.356 54.0472 92.1604 55.4198 92.9229C53.3578 93.6558 51.4089 91.211 50.7075 90.3312C50.6745 90.2897 50.6442 90.2517 50.6168 90.2177C48.1535 92.2333 49.2674 94.7633 50.5479 96.8144C49.4154 96.8033 47.8005 95.5792 47.2554 94.9278C46.451 93.9687 45.7578 92.0474 45.4426 90.6864C44.8103 90.685 44.5082 91.3981 44.1351 92.2786C43.6727 93.3697 43.1015 94.7178 41.6582 95.2813C42.4364 94.5525 42.1125 93.2282 41.732 91.6726C41.2972 89.8949 40.7886 87.8152 41.7663 85.9772C36.7863 89.9203 32.5542 85.3801 34.3092 80.8696C33.4809 85.3743 39.0086 85.5935 40.9988 83.5628C41.5554 82.9948 42.0955 82.2624 42.6513 81.5086C42.9769 81.067 43.3082 80.6177 43.6511 80.1902C43.7307 80.0911 43.8081 79.9934 43.8841 79.8976C44.7343 78.8245 45.409 77.9731 47.0842 77.6971C48.4283 77.4748 49.4835 77.2494 50.342 76.9319C49.9899 78.1293 50.9561 79.5011 53.3042 79.6029C51.2673 78.6633 50.9926 77.1387 52.4296 75.606C52.6524 76.7487 54.1548 77.5028 56.4883 76.8537C52.7755 76.4151 53.1132 75.4519 53.9374 73.1007C54.0074 72.9013 54.081 72.6912 54.1557 72.4713C54.2607 74.0911 56.314 75.1809 59.4976 73.0338C56.2847 73.7229 54.214 72.5224 54.2202 69.2308C54.2233 67.3913 55.5377 64.783 56.4638 63.6892C52.6535 61.0078 52.9748 58.9137 53.2937 56.8353L53.314 56.7026C53.5419 55.2061 54.2163 54.0133 54.8463 52.899C55.6211 51.5285 56.3288 50.2768 56.0561 48.7249C58.7133 50.4474 58.238 54.1139 57.4336 56.3834C60.9387 54.7524 62.0828 50.5364 62.2006 46.5386C62.462 37.7125 63.4305 34.5298 70.9831 29.9531C67.7297 30.4947 64.8355 31.111 62.6995 33.9317C60.3891 36.9824 60.1326 42.1811 59.9556 45.929C59.946 46.1329 59.9383 46.3962 59.9293 46.7037C59.8722 48.6569 59.7631 52.3904 58.78 53.9578C59.4056 50.8649 57.6004 48.0597 54.298 47.4408L53.5417 47.2989L54.0686 47.8601C54.9841 48.8356 54.3914 50.0873 53.8507 51.0922C53.5759 51.6046 53.2859 52.0962 52.998 52.5847C52.3686 53.6521 51.7484 54.7039 51.3149 55.9223Z" fill="#E31E24"/>
<path d="M45.4679 87.0306C46.7405 83.899 46.0095 80.9408 44.0655 81.0546C46.6084 78.7345 47.985 83.8954 45.4679 87.0306Z" fill="#E31E24"/>
<path d="M43.845 85.8797C43.7896 86.9163 43.7256 88.114 44.5546 88.9198C44.3399 88.4669 44.4791 87.5955 44.6336 86.6274C44.797 85.6043 44.9775 84.4732 44.776 83.614C43.9117 79.9226 40.343 83.1564 42.5168 85.2271C42.4848 84.7825 42.5755 83.5593 43.3114 83.8732C43.938 84.14 43.895 84.9443 43.845 85.8797Z" fill="#E31E24"/>
<path d="M62.468 68.0503C61.4199 68.7779 60.3809 69.4991 60.5207 70.9586C58.4762 67.7409 60.3849 66.0369 62.0303 64.568C62.7377 63.9364 63.3965 63.3484 63.6715 62.7021C64.5652 63.4349 64.8528 65.2228 64.1983 66.4264C63.8294 67.1052 63.1468 67.5791 62.468 68.0503Z" fill="#E31E24"/>
<path d="M77.7769 56.7316C75.6619 58.0409 72.8943 59.7541 72.0747 62.5999C71.7857 59.8687 73.9143 57.8488 76.0648 55.8081C77.9906 53.9808 79.934 52.1367 80.1747 49.7502C83.1035 50.8062 86.2449 63.2899 79.7994 66.6447C82.6691 66.2446 84.6304 64.7853 85.9795 63.6381C86.7509 69.3664 82.9377 72.0849 78.606 75.1173C68.4778 82.2072 66.7603 89.3782 66.1049 92.1149C66.0742 92.2429 66.0459 92.3612 66.0191 92.4694C66.2271 83.4035 71.9862 78.6796 76.6363 74.8652C79.5024 72.5143 81.9473 70.5089 82.4117 68.0453C82.036 68.1057 81.6518 68.1919 81.2581 68.2802C79.6621 68.6382 77.9104 69.0311 75.943 67.8791L75.9834 67.8485C77.1746 66.9453 82.9952 62.5323 80.341 54.5799C80.1577 55.2578 79.0938 55.9164 77.7769 56.7316Z" fill="#E31E24"/>
<path d="M62.3477 61.7368C59.843 63.5297 57.3626 65.3051 57.7506 68.1356C57.0403 63.8185 58.918 62.1328 60.9067 60.3475C62.9727 58.4928 65.1585 56.5305 64.687 51.3985C69.2103 51.0953 72.3264 58.1046 70.5727 61.5923C70.6527 59.5981 69.5331 56.2148 66.9707 54.5394C67.7734 57.8531 65.0465 59.805 62.3477 61.7368Z" fill="#E31E24"/>
<path d="M85.9008 19.2364C86.9408 14.3062 83.9123 10.1693 78.6358 10.7278C84.8567 14.5348 80.5251 21.3555 77.1489 25.2853C75.8558 26.7899 74.585 28.001 73.4164 29.1147C69.2849 33.0523 66.43 35.773 68.3779 45.9437C68.4606 39.4786 73.353 34.4422 78.8995 30.1772C79.5784 29.655 80.2588 29.1517 80.9271 28.6574C86.1863 24.7674 90.6934 21.4336 87.8372 13.7896C87.7639 14.0803 87.69 14.4062 87.6116 14.7518C87.2549 16.325 86.8055 18.3065 85.9008 19.2364Z" fill="#E31E24"/>
<path d="M95.5232 16.8647C95.3289 20.9007 93.2208 23.6508 90.3805 25.8998C88.5467 27.352 86.3593 28.5028 84.103 29.6898C77.6701 33.0742 70.6775 36.7529 69.7252 48.5515C72.1288 37.7106 80.3887 35.0641 88.0827 32.5989C92.2021 31.279 96.1593 30.0111 98.9687 27.5654C102.786 24.2422 105.142 18.4672 102.392 14.1497C102.824 17.0141 100.373 19.637 98.2141 21.2737C99.0341 19.6152 99.1381 17.3489 98.8495 15.6953C98.2542 12.2831 96.4712 10.4641 93.2462 9.48147C94.8078 11.8581 95.6655 13.9456 95.5232 16.8647Z" fill="#E31E24"/>
<path d="M103.131 37.1878C104.382 33.6458 104.95 29.5316 102.744 26.2973C99.4496 32.6354 93.1892 34.2243 87.3171 35.7146C81.7001 37.1403 76.4383 38.4757 74.4682 43.7916C76.4753 39.2559 81.9365 38.9184 87.3688 38.5827C92.8348 38.245 98.2716 37.909 100.131 33.2999C99.0888 38.005 96.1431 40.5709 93.3007 43.0468C89.5453 46.3181 85.9702 49.4322 87.204 57.1157C89.3224 54.6708 93.1512 53.1287 96.7275 51.6883C100.473 50.1799 103.941 48.7831 104.878 46.5777C104.75 50.3444 101.639 51.7325 98.2979 53.2234C95.1531 54.6267 91.8044 56.121 90.5472 59.7755C92.4792 59.511 96.0705 59.6701 99.9718 61.7555C97.45 61.1847 95.1481 64.1194 92.3614 67.6722C89.0334 71.9152 85.014 77.0396 79.1031 78.1267C88.2211 79.6067 93.7823 73.2547 97.967 68.475C100.517 65.5624 102.556 63.2336 104.577 63.6163C104.201 59.7021 101.623 57.6146 97.553 56.932C106.005 54.3594 109.379 50.5452 105.593 41.1069C105.094 44.5017 102.121 45.7991 98.8169 47.2414C96.5455 48.2329 94.117 49.2928 92.2266 51.1495C92.7087 48.8852 94.8624 46.8778 97.1697 44.7271C99.5464 42.5119 102.086 40.1446 103.131 37.1878Z" fill="#E31E24"/>
<path d="M84.999 145.797C64.7101 129.485 74.1449 108.207 87.5135 91.871C88.1526 91.09 88.7911 90.3158 89.4224 89.5504L89.4235 89.5491C96.7932 80.6137 103.183 72.8658 98.167 69.2762C107.881 73.8444 101.442 86.0733 92.9456 96.2169C80.5775 110.982 67.3931 127.315 84.999 145.797Z" fill="#E31E24"/>
<path d="M241.937 100.52C242.602 101.828 243.277 103.476 242.088 105.581C241.6 106.445 240.895 107.293 239.19 108.05C240.234 106.375 240.572 105.266 240.531 104.254C240.179 105.187 238.471 106.185 236.413 107.386C234.772 108.344 232.908 109.432 231.332 110.721C230.834 111.338 230.197 111.977 229.386 112.638C229.452 112.402 229.535 112.175 229.62 111.946C229.837 111.357 230.056 110.761 229.967 109.991C228.663 110.926 226.42 112.573 224.576 114.414C224.137 115.174 223.464 115.97 222.5 116.874C223.792 114.343 223.192 112.506 222.577 111.504C220.127 115.356 212.734 120.151 203.788 118.84C211.186 118.475 218.006 114.458 223.453 105.785C223.588 106.148 223.719 106.496 223.845 106.829C224.685 109.058 225.286 110.65 225.251 112.103C226.628 110.429 228.327 109.22 229.82 108.158C231.154 107.208 232.324 106.376 232.952 105.432C233.039 106.372 233.012 107.382 232.628 108.468C233.123 107.949 233.679 107.428 234.307 106.923C235.151 106.244 236.081 105.577 237 104.918C239.084 103.424 241.11 101.971 241.937 100.52Z" fill="#E31E24"/>
<path d="M38.5929 92.1323C34.8428 95.4093 29.5788 98.2301 23.8727 98.4956C6.69494 99.2937 -3.97996 80.8225 6.07511 65.5127C7.18361 63.8246 9.10997 61.7155 11.2395 59.384C15.2337 55.0108 19.9427 49.8551 21.3107 45.2273C22.36 41.6769 21.4427 38.4359 16.7269 36.0985C20.1048 38.4275 20.4134 41.5533 19.1524 44.945C17.5237 49.3257 13.277 54.152 9.64342 58.2814C7.56604 60.6423 5.68906 62.7754 4.61625 64.4673C-6.48462 81.975 5.61668 101.746 24.0341 99.942C29.8006 99.3773 35.3479 96.5272 38.5929 92.1323Z" fill="#E31E24"/>
<path d="M191.054 76.3477C196.977 65.5514 200.557 54.2091 196.727 46.6111C194.429 42.052 184.526 41.5467 177.803 47.3811C198.116 29.344 209.976 47.0677 195.984 75.7212C182.969 102.376 137.007 136.166 110.118 126.001C99.8802 122.132 96.4831 114.211 101.347 102.686C103.218 98.2529 106.466 93.1968 109.872 87.8937C116.727 77.2228 124.224 65.5515 122.437 55.9436C120.957 47.9868 114.119 39.6418 102.314 40.4604C110.225 38.1789 123.992 42.5733 127.459 55.4999C129.923 64.6866 124.384 75.8861 119.384 85.8985C118.241 88.1878 117.07 90.4406 115.927 92.6396L115.926 92.6408C108.475 106.973 102.211 119.023 112.579 124.029C122.097 128.624 142.533 123.761 159.463 112.324C173.749 102.674 184.271 88.7153 191.054 76.3477Z" fill="#E31E24"/>
<path d="M177.37 47.7703C177.515 47.6387 177.659 47.509 177.803 47.3811C177.657 47.5078 177.513 47.6375 177.37 47.7703Z" fill="#E31E24"/>
<path d="M234.021 55.3211C238.41 5.19776 178.444 -6.6421 149.881 48.2522C166.972 16.0888 215.433 1.13864 222.665 42.0477C229.06 78.2231 193.006 144.809 124.318 155.384C163.793 156.259 207.376 119.217 224.486 85.7428C230.268 74.4325 233.239 64.2463 234.021 55.3211Z" fill="#E31E24"/>
<path d="M254.33 48.1852C263.318 33.2093 282.094 38.0429 279.461 58.1477C275.758 86.4086 237.577 120.965 211.289 120.333C237.511 117.556 274.877 84.4562 273.792 55.4186C273.591 50.0131 271.504 45.2292 267.681 43.954C263.409 42.5294 258.069 43.829 254.33 48.1852Z" fill="#E31E24"/>
<path d="M270.276 110.705C247.824 132.809 210.802 149.717 162.474 149.618C220.69 153.816 301.156 120.276 306.754 54.9655C307.725 43.6316 305.752 31.8731 299.592 23.8296C293.587 15.9884 283.565 11.6941 271.208 13.3632C260.552 14.803 248.576 21.3156 236.36 33.7691C301.964 -20.6752 316.785 64.9152 270.276 110.705Z" fill="#E31E24"/>
<path d="M105.917 34.375C105.745 27.3369 111.798 26.3741 116.712 25.5925C119.161 25.203 121.326 24.8586 122.298 23.83C119.553 31.1242 117.251 31.2982 114.062 31.5394C111.895 31.7032 109.319 31.898 105.917 34.375Z" fill="#E31E24"/>
<path d="M132.652 51.3442C132.13 50.8767 131.601 50.4031 130.958 49.7258C132.299 49.3416 133.286 48.3183 134.163 47.4102C134.616 46.9405 135.04 46.5016 135.467 46.198C133.372 44.7327 132.066 44.0912 130.733 43.4362C129.977 43.0645 129.211 42.6885 128.288 42.1554C131.33 41.4991 132.398 39.4651 133.262 37.8204C133.541 37.289 133.799 36.7981 134.095 36.4075C130.289 37.018 126.341 35.8977 122.552 34.8228C117.357 33.3488 112.463 31.9601 108.649 35.2372C113.868 34.0726 117.626 35.9382 120.818 37.5225C122.771 38.4919 124.511 39.3559 126.244 39.3559C125.118 40.8988 123.353 41.7383 120.745 41.5853C124.35 42.5103 125.824 43.9003 127.125 45.1266C128.071 46.0189 128.925 46.8245 130.442 47.3012C129.033 48.3412 127.258 48.5897 125.019 47.7391C126.007 48.523 126.649 48.8386 127.167 49.0932C128.004 49.5044 128.517 49.7564 129.639 51.5644C130.301 52.6279 130.99 53.5888 131.673 54.0348C130.463 54.4928 129.151 54.3154 127.729 53.2629C130.493 57.0824 132.617 55.8386 134.297 54.8555C134.713 54.6118 135.102 54.3842 135.467 54.2535C134.27 52.7932 133.469 52.0761 132.652 51.3442Z" fill="#E31E24"/>
<path d="M121.955 120.414C126.435 117.926 130.495 113.786 134.435 109.767C134.742 109.454 135.049 109.141 135.355 108.83C135.419 109.371 135.64 110.005 135.888 110.716C136.767 113.24 137.984 116.733 133.726 120.488C138.544 118.07 142.188 114.606 144.148 111.125C146.729 116.182 144.263 120.19 130.749 122.603C130.68 122.643 130.61 122.684 130.539 122.725L130.448 122.777L130.346 122.835C132.33 121.136 133.019 119.306 132.76 117.414C129.472 120.582 120.833 125.246 113.297 122.72C113.741 122.734 114.18 122.727 114.615 122.701C116.556 122.342 118.05 120.537 118.888 118.457C113.833 118.975 107.458 116.77 110.216 108.83C109.753 114.808 117.869 115.489 125.985 113.712C125.47 115.851 124.252 118.522 121.955 120.414Z" fill="#E31E24"/>
<path d="M114.022 101.614C113.77 105.615 117.007 109.109 119.919 112.122C117.373 112.956 110.569 113.261 110.569 108.163C110.86 109.815 113.099 110.108 114.853 109.807C113.114 107.543 111.441 103.86 113.781 99.8933C113.81 99.6432 114.206 99.1683 114.587 98.7214C114.728 98.5434 114.877 98.365 115.035 98.1865C115.124 98.0738 115.197 97.9732 115.244 97.8913C115.232 97.9247 115.221 97.9582 115.211 97.9917L115.244 97.9554C115.229 97.9799 115.215 98.0044 115.2 98.0289C114.854 99.2447 115.722 100.523 116.634 101.643C116.615 101.495 116.593 101.339 116.57 101.175C116.184 98.4165 115.48 93.3814 119.753 90.1408C116.53 93.2742 117.44 101.087 118.492 105.278C117.075 104.982 114.793 103.555 114.022 101.614Z" fill="#E31E24"/>
<path d="M146.707 114.97C145.984 116.222 145.279 117.443 143.873 118.283C151.315 116.879 152.139 114.187 151.469 110.6C148.683 111.546 147.679 113.286 146.707 114.97Z" fill="#E31E24"/>
<path d="M289.998 11.2062C288.764 11.7035 287.342 12.2765 286.283 13.473C291.295 11.611 295.272 12.9496 298.649 14.0863C300.715 14.7818 302.557 15.4018 304.274 15.1666C303.367 16.8478 301.732 17.919 299.128 18.1213C300.896 19.4756 305.314 22.8135 307.369 23.163C306 24.4952 304.119 25.0265 301.574 24.4383C303.247 25.4288 306.35 27.7637 308.202 29.157C309.031 29.781 309.61 30.2165 309.696 30.2573C308.456 30.9313 307.012 30.9336 305.32 30.0069C305.952 30.6686 307.282 32.1572 308.647 33.6852L308.651 33.6895C310.562 35.828 312.54 38.0422 312.769 38.1736C311.269 38.8397 309.596 38.709 307.72 37.4782C308.775 38.7763 310.587 41.5894 311.664 43.2614L311.665 43.2627C312.144 44.0059 312.477 44.524 312.534 44.5817C311.335 44.756 310.17 44.3288 309.082 43.0789C310.174 45.6031 310.743 49.9425 311.261 53.8886C311.785 57.8839 312.256 61.4763 313.164 62.3731C311.977 62.5908 310.692 60.851 309.767 59.5996C309.495 59.2306 309.254 58.904 309.056 58.6826C311.46 62.7955 309.862 67.2098 308.429 71.1688C307.33 74.2037 306.329 76.9711 307.301 79.1298C305.433 78.807 305.018 76.6905 304.79 74.1889C303.725 77.5678 302.421 87.3525 303.241 89.172C301.86 88.8812 300.759 87.947 300.071 86.1444C300.121 87.0231 300.021 88.2328 299.914 89.5119L299.914 89.514C299.727 91.7655 299.523 94.2322 300.087 95.4854C299.02 95.2609 298.169 94.5388 297.638 93.1457C297.864 97.1125 299.938 97.195 301.577 97.2602C301.983 97.2764 302.363 97.2915 302.681 97.3644C302.442 95.3375 302.072 93.1534 301.734 91.1534L301.614 90.4441C302.634 91.3673 303.989 91.4215 305.169 91.4687C305.695 91.4897 306.186 91.5093 306.598 91.6037C306.482 90.6211 306.255 89.5052 306.02 88.3431C305.532 85.9407 305.004 83.3411 305.331 81.3143C307.049 83.2647 309.007 83.5917 310.616 83.8602C310.856 83.9003 311.088 83.939 311.31 83.9817C308.849 80.2957 309.779 76.3308 310.731 72.2717C311.302 69.8372 311.881 67.3687 311.741 64.9062C314.183 66.3069 316.265 65.913 317.963 65.5919C318.206 65.5459 318.442 65.5013 318.669 65.4638C315.045 62.9137 314.559 58.9349 314.061 54.8615C313.687 51.7992 313.307 48.6835 311.581 46.0811C312.683 46.5351 313.798 46.1755 314.769 45.8623C315.199 45.7237 315.601 45.5942 315.96 45.5484C315.16 43.9705 314.572 43.1527 313.973 42.3177C313.59 41.7848 313.202 41.2448 312.75 40.4955C314.054 40.4152 315.165 39.6787 316.15 39.0251C316.66 38.687 317.136 38.3711 317.588 38.1798C315.968 36.4163 314.903 35.5659 313.816 34.6975C312.936 33.9942 312.041 33.2792 310.824 32.0581C310.797 32.0314 310.771 32.0105 310.745 31.9936C311.459 31.6928 312.083 31.2037 312.654 30.7553C313.067 30.4307 313.454 30.1273 313.828 29.9322C312.318 28.5311 311.347 27.8749 310.355 27.2047C309.722 26.777 309.08 26.3433 308.285 25.7068C309.677 25.0932 310.593 23.8415 311.406 22.7305C311.826 22.1557 312.22 21.6186 312.637 21.2271C310.157 19.9542 308.651 19.4543 307.114 18.9441C306.389 18.7033 305.657 18.4602 304.812 18.1324C309.308 17.4178 310.268 14.7652 311.018 12.6936C311.223 12.1291 311.411 11.6077 311.652 11.1805C307.634 12.4019 294.816 10.6371 294.852 10.6011C296.754 8.29127 296.689 6.13566 296.637 4.38611C296.629 4.14086 296.622 3.90264 296.621 3.67405C293.512 6.96564 289.477 6.99662 285.347 7.02834C282.927 7.04692 280.474 7.06575 278.155 7.74072C278.298 7.57576 278.416 7.3779 278.511 7.13157C279.588 4.3397 278.847 2.31447 278.246 0.670554C278.161 0.439883 278.08 0.21672 278.006 0C276.093 4.10372 272.274 5.40448 268.364 6.73617C266.018 7.53506 263.64 8.34508 261.621 9.77806C261.606 6.90644 260.246 5.30356 259.138 3.99747C258.98 3.81027 258.826 3.62916 258.682 3.45128C258.305 7.96321 255.171 10.5034 251.962 13.104C248.693 15.7534 245.346 18.4655 244.759 23.3889C246.337 19.9848 249.807 17.6581 252.912 15.5769C255.733 13.686 258.251 11.9976 258.773 9.88788C259.543 10.8056 258.69 12.8764 258.086 14.3424C257.909 14.77 257.755 15.1461 257.667 15.4272C259.963 11.1593 264.498 10.1933 268.565 9.32724C271.681 8.6636 274.521 8.05863 275.867 6.07154C276.315 7.31971 275.484 8.15675 274.402 9.24585C273.925 9.72533 273.4 10.2537 272.915 10.8874C273.086 10.7363 273.253 10.5957 273.417 10.4646L273.302 10.574C276.658 8.89728 280.823 9.24345 284.547 9.5531C287.932 9.83444 290.953 10.0856 292.677 8.76205C292.71 10.1134 291.491 10.6043 289.998 11.2062Z" fill="#E31E24"/>
<path d="M357.331 97.8295C359.424 91.8386 365.166 90.9656 371.524 89.999C375.797 89.3494 380.347 88.6575 384.255 86.3418C384.138 86.8153 384.054 87.2983 383.97 87.7881C383.57 90.1144 383.143 92.5946 378.877 94.9447C381.269 94.9612 383.476 93.9927 385.604 93.0588C387.715 92.1322 389.748 91.2398 391.807 91.3778C391.71 91.773 391.662 92.2439 391.611 92.752C391.414 94.685 391.163 97.156 387.938 98.0465C389.394 98.4768 390.914 98.822 392.401 99.1598C394.181 99.5641 395.916 99.958 397.438 100.475C397.095 100.764 396.772 101.149 396.425 101.561C395.485 102.681 394.376 104.001 392.248 104.138C392.777 104.426 393.228 104.64 393.675 104.85C394.514 105.246 395.335 105.633 396.612 106.497C396.295 106.656 395.969 106.891 395.619 107.142C394.207 108.154 392.422 109.435 389.42 107.112C390.85 107.637 392.071 107.54 393.119 106.994C392.01 106.654 391.029 105.683 390.153 104.816C389.488 104.157 388.882 103.558 388.327 103.341C390.423 103.571 391.973 103.093 393.1 102.112C391.187 101.997 386.605 99.3198 385.332 98.5759C385.126 98.4554 385.007 98.3857 384.999 98.3857C385.371 98.2501 388.275 95.4017 388.375 94.9602C382.879 97.3328 378.692 96.2961 376.149 95.6663C375.46 95.4957 374.892 95.355 374.451 95.3199C377.475 94.179 378.984 92.5721 379.685 90.6027C377.949 91.3522 375.548 91.5448 372.895 91.7576C367.611 92.1815 361.33 92.6853 357.331 97.8295Z" fill="#E31E24"/>
<path d="M361.299 116.253C347.642 128.67 339.08 136.455 319.539 135.752C338.287 142.646 350.345 131.696 358.8 124.019C361.78 121.312 364.313 119.013 366.533 118.045C370.252 116.424 374.071 117.76 376.055 122.128C379.725 114.353 373.759 104.93 362.089 115.535L361.299 116.253Z" fill="#E31E24"/>
<path d="M336.353 108.629C342.438 107.795 346.998 104.988 351.552 102.185C355.718 99.622 359.878 97.0616 365.196 96.0164C389.432 91.2525 398.017 118.468 383.371 134.219C376.774 141.315 368.593 142.244 364.367 138.88C358.377 134.11 361.2 124.343 366.719 119.665C363.743 124.254 360.672 132.02 365.857 136.299C369.525 139.326 376.379 137.818 382.225 131.532C396.516 116.163 386.206 91.9346 365.221 98.1351C360.134 99.6384 356.694 101.627 353.508 103.468C348.762 106.212 344.58 108.629 336.353 108.629Z" fill="#E31E24"/>
<path d="M375.735 122.504C373.669 129.756 366.632 124.215 372.616 119.922C371.466 122.227 372.313 125.183 375.735 122.504Z" fill="#E31E24"/>
<path d="M399.12 120.01C397.474 116.633 406.99 113.425 410.432 121.161C411.537 123.644 411.534 126.969 411.073 129.307C408.735 141.178 391.104 144.003 383.137 136.643C393.213 141.574 405.611 137.998 407.922 129.685C410.324 121.046 404.554 118.1 405.244 119.622C406.813 123.081 405.588 126.888 402.786 128.768C398.319 131.766 391.438 128.618 390.066 123.675C391.054 125.26 398.789 130.704 403.146 125.732C407.321 120.966 400.757 116.894 399.12 120.01Z" fill="#E31E24"/>
<path d="M354.45 92.9441C352.401 94.5936 351.224 95.5415 350.218 101.111C356.129 98.0843 356.953 96.2844 357.884 89.7206C356.511 91.2844 355.389 92.188 354.45 92.9441Z" fill="#E31E24"/>
<path d="M390.677 110.567C390.938 111.293 391.583 111.638 392.334 112.038C393.381 112.597 394.633 113.264 395.333 115.23C390.699 115.891 390.681 111.44 390.678 110.587L390.677 110.567Z" fill="#E31E24"/>
<path d="M393.717 121.417C393.971 121.446 394.209 121.473 394.412 121.529C393.922 119.537 393.617 118.506 392.079 116.961C392.1 117.147 392.12 117.361 392.141 117.591C392.229 118.558 392.343 119.801 392.674 120.357C391.995 120.18 391.418 119.736 390.997 118.935C391.395 121.154 392.692 121.301 393.717 121.417Z" fill="#E31E24"/>
<path d="M37.5698 233.638C36.3395 234.417 34.6581 235.073 32.5255 235.606C30.393 236.18 28.158 236.508 25.8204 236.59C22.2936 236.713 19.1153 236.18 16.2856 234.991C13.4559 233.843 11.0363 232.223 9.02685 230.131C7.05837 228.04 5.54101 225.579 4.47475 222.749C3.40849 219.92 2.87536 216.864 2.87536 213.584C2.87536 210.385 3.34697 207.453 4.2902 204.787C5.23343 202.121 6.58676 199.825 8.35019 197.897C10.1136 196.011 12.2461 194.535 14.7477 193.468C17.2904 192.402 20.1405 191.869 23.2983 191.869C25.5128 191.869 27.5223 192.176 29.3268 192.792C31.1722 193.407 32.7306 194.186 34.0019 195.129C35.3142 196.072 36.319 197.139 37.0161 198.328C37.7543 199.476 38.1234 200.625 38.1234 201.773H31.7874C31.7874 201.158 31.5823 200.502 31.1722 199.804C30.8031 199.107 30.2495 198.451 29.5113 197.836C28.7731 197.221 27.8504 196.708 26.7431 196.298C25.6769 195.888 24.4466 195.683 23.0523 195.683C21.822 195.683 20.4071 195.949 18.8077 196.483C17.2083 196.975 15.6705 197.856 14.1941 199.128C12.7588 200.399 11.549 202.142 10.5647 204.356C9.58049 206.53 9.08837 209.278 9.08837 212.599C9.08837 215.265 9.43695 217.828 10.1341 220.289C10.8723 222.708 11.9386 224.841 13.3329 226.686C14.7682 228.532 16.5112 230.008 18.5617 231.115C20.6122 232.223 22.9907 232.776 25.6974 232.776C27.5018 232.776 29.3473 232.571 31.2337 232.161C33.1202 231.751 34.9656 231.115 36.7701 230.254C37.1802 230.09 37.5493 230.111 37.8773 230.316C38.2054 230.48 38.431 230.767 38.554 231.177C38.677 231.546 38.6565 231.977 38.4925 232.469C38.3695 232.92 38.0619 233.309 37.5698 233.638ZM51.3347 195.437V210.939H70.4658V192.484H76.0637V235.975H70.4658V214.875H51.3347V235.975H45.7368V200.604C45.7368 199.046 45.3882 197.774 44.6911 196.79C44.0349 195.806 42.9482 195.273 41.4308 195.191C40.8977 195.191 40.4876 195.068 40.2005 194.822C39.9134 194.535 39.7699 194.186 39.7699 193.776C39.7699 193.407 39.9134 193.099 40.2005 192.853C40.5286 192.607 40.8977 192.484 41.3078 192.484H48.382C49.4072 192.484 50.1454 192.812 50.5965 193.468C51.0886 194.083 51.3347 194.74 51.3347 195.437ZM93.0841 195.437V235.975H87.4862V200.604C87.4862 199.046 87.1376 197.774 86.4405 196.79C85.7843 195.806 84.6976 195.273 83.1802 195.191C82.6471 195.191 82.237 195.068 81.9499 194.822C81.6628 194.535 81.5193 194.186 81.5193 193.776C81.5193 193.407 81.6628 193.099 81.9499 192.853C82.278 192.607 82.6471 192.484 83.0572 192.484H90.1314C91.1566 192.484 91.8948 192.812 92.3459 193.468C92.838 194.083 93.0841 194.74 93.0841 195.437ZM104.058 235.975V200.604C104.058 199.005 103.771 197.733 103.197 196.79C102.622 195.806 101.597 195.293 100.121 195.252C99.6287 195.252 99.2391 195.129 98.952 194.883C98.706 194.596 98.5829 194.247 98.5829 193.837C98.5829 193.468 98.706 193.161 98.952 192.915C99.1981 192.628 99.5057 192.484 99.8748 192.484H110.824L129.648 227.24V192.484H134.323V233.084C134.323 233.74 134.036 234.376 133.462 234.991C132.929 235.647 132.293 235.975 131.555 235.975H129.033L108.61 199.312V235.975H104.058ZM138.516 235.975L151.372 201.096C151.495 200.727 151.598 200.419 151.68 200.173C151.762 199.886 151.844 199.62 151.926 199.374C152.008 199.128 152.07 198.882 152.111 198.636C152.193 198.348 152.254 198.041 152.295 197.713C152.295 197.344 152.234 197.036 152.111 196.79C151.987 196.503 151.782 196.216 151.495 195.929C151.167 195.724 150.757 195.56 150.265 195.437C149.773 195.314 149.301 195.252 148.85 195.252C148.399 195.252 148.03 195.109 147.743 194.822C147.456 194.494 147.312 194.124 147.312 193.714C147.271 193.386 147.394 193.099 147.681 192.853C148.01 192.566 148.358 192.423 148.727 192.423H159.554L175.917 235.975H169.642L164.352 221.765H148.666L143.437 235.975H138.516ZM156.355 200.112L150.019 218.136H163.122L156.355 200.112ZM210.046 235.975V196.236H204.448C203.792 196.236 203.238 196.277 202.787 196.36C202.336 196.401 201.946 196.483 201.618 196.606C200.962 196.893 200.47 197.282 200.142 197.774C199.814 198.225 199.568 198.697 199.403 199.189C199.28 199.722 199.198 200.255 199.157 200.789C199.116 201.322 199.075 201.773 199.034 202.142C198.952 202.552 198.747 202.839 198.419 203.003C198.132 203.167 197.825 203.229 197.497 203.188C197.127 203.188 196.799 203.085 196.512 202.88C196.266 202.675 196.164 202.408 196.205 202.08L196.512 192.484H229.177L229.484 202.08C229.443 202.449 229.279 202.737 228.992 202.942C228.746 203.106 228.459 203.188 228.131 203.188C227.762 203.188 227.434 203.106 227.147 202.942C226.86 202.778 226.696 202.511 226.655 202.142C226.573 201.691 226.47 201.199 226.347 200.666C226.265 200.091 226.142 199.538 225.978 199.005C225.773 198.472 225.527 198 225.24 197.59C224.953 197.139 224.563 196.811 224.071 196.606C223.784 196.524 223.394 196.442 222.902 196.36C222.41 196.277 221.836 196.236 221.18 196.236H215.643V235.975H210.046ZM250.196 217.029L264.282 235.975H257.639L243.49 216.782C242.875 216.29 242.65 215.614 242.814 214.752C243.019 213.85 243.634 213.399 244.659 213.399C245.356 213.399 246.238 213.399 247.304 213.399C248.371 213.399 249.252 213.358 249.949 213.276C250.852 213.194 251.774 213.01 252.718 212.722C253.661 212.394 254.522 211.923 255.301 211.308C256.039 210.651 256.655 209.79 257.147 208.724C257.68 207.658 257.987 206.304 258.069 204.664C258.069 201.711 257.27 199.599 255.67 198.328C254.071 197.057 251.856 196.38 249.027 196.298C248.699 196.298 248.248 196.318 247.673 196.36C247.14 196.36 246.587 196.36 246.013 196.36C245.438 196.401 244.905 196.442 244.413 196.483C243.921 196.483 243.593 196.483 243.429 196.483C242.527 196.606 241.932 196.893 241.645 197.344C241.358 197.754 241.214 198.759 241.214 200.358V235.975H235.74V200.543C235.74 199.107 235.617 198.123 235.37 197.59C235.165 197.016 234.776 196.524 234.202 196.113C233.997 195.99 233.628 195.847 233.094 195.683C232.561 195.519 232.11 195.396 231.741 195.314C231.208 195.314 230.798 195.17 230.511 194.883C230.265 194.555 230.142 194.206 230.142 193.837C230.101 193.55 230.203 193.263 230.449 192.976C230.736 192.648 231.105 192.484 231.557 192.484H244.967C245.91 192.484 247.058 192.505 248.412 192.546C249.806 192.587 251.016 192.628 252.041 192.669C253.476 192.751 254.912 193.058 256.347 193.591C257.782 194.083 259.074 194.822 260.222 195.806C261.371 196.831 262.293 198.082 262.991 199.558C263.688 200.994 264.057 202.696 264.098 204.664C264.098 206.468 263.729 208.129 262.991 209.647C262.293 211.123 261.35 212.415 260.161 213.522C258.972 214.588 257.577 215.45 255.978 216.106C254.379 216.721 252.697 217.029 250.934 217.029H250.196ZM270.363 195.99C270.035 195.785 269.604 195.621 269.071 195.498C268.538 195.375 268.087 195.314 267.718 195.314C267.185 195.314 266.754 195.17 266.426 194.883C266.139 194.555 265.995 194.186 265.995 193.776C265.995 193.407 266.139 193.099 266.426 192.853C266.754 192.607 267.123 192.484 267.533 192.484H274.669C275.694 192.484 276.432 192.792 276.883 193.407C277.335 194.022 277.56 194.678 277.56 195.375V219.735C277.56 223.672 278.257 226.809 279.652 229.147C281.046 231.485 283.691 232.653 287.587 232.653C289.597 232.653 291.278 232.346 292.631 231.731C293.985 231.115 295.071 230.234 295.892 229.085C296.671 227.937 297.224 226.584 297.552 225.025C297.922 223.467 298.106 221.724 298.106 219.797V192.484H302.843V219.735C302.843 221.581 302.679 223.508 302.351 225.518C302.023 227.486 301.325 229.29 300.259 230.931C299.193 232.612 297.655 233.966 295.645 234.991C293.636 236.057 290.929 236.59 287.526 236.59C284.45 236.59 281.907 236.139 279.898 235.237C277.888 234.376 276.289 233.207 275.099 231.731C273.91 230.254 273.09 228.552 272.639 226.625C272.188 224.656 271.962 222.606 271.962 220.473V200.543C271.962 199.517 271.86 198.636 271.655 197.897C271.491 197.118 271.06 196.483 270.363 195.99ZM343.883 233.638C342.652 234.417 340.971 235.073 338.839 235.606C336.706 236.18 334.471 236.508 332.133 236.59C328.607 236.713 325.428 236.18 322.599 234.991C319.769 233.843 317.349 232.223 315.34 230.131C313.371 228.04 311.854 225.579 310.788 222.749C309.721 219.92 309.188 216.864 309.188 213.584C309.188 210.385 309.66 207.453 310.603 204.787C311.546 202.121 312.9 199.825 314.663 197.897C316.427 196.011 318.559 194.535 321.061 193.468C323.603 192.402 326.454 191.869 329.611 191.869C331.826 191.869 333.835 192.176 335.64 192.792C337.485 193.407 339.044 194.186 340.315 195.129C341.627 196.072 342.632 197.139 343.329 198.328C344.067 199.476 344.436 200.625 344.436 201.773H338.1C338.1 201.158 337.895 200.502 337.485 199.804C337.116 199.107 336.562 198.451 335.824 197.836C335.086 197.221 334.163 196.708 333.056 196.298C331.99 195.888 330.76 195.683 329.365 195.683C328.135 195.683 326.72 195.949 325.121 196.483C323.521 196.975 321.983 197.856 320.507 199.128C319.072 200.399 317.862 202.142 316.878 204.356C315.893 206.53 315.401 209.278 315.401 212.599C315.401 215.265 315.75 217.828 316.447 220.289C317.185 222.708 318.252 224.841 319.646 226.686C321.081 228.532 322.824 230.008 324.875 231.115C326.925 232.223 329.304 232.776 332.01 232.776C333.815 232.776 335.66 232.571 337.547 232.161C339.433 231.751 341.279 231.115 343.083 230.254C343.493 230.09 343.862 230.111 344.19 230.316C344.518 230.48 344.744 230.767 344.867 231.177C344.99 231.546 344.97 231.977 344.805 232.469C344.682 232.92 344.375 233.309 343.883 233.638ZM357.34 195.375V210.692L374.318 192.484H377.394C378.05 192.484 378.46 192.607 378.624 192.853C378.788 193.058 378.829 193.284 378.747 193.53C378.706 193.776 378.604 194.001 378.44 194.206C378.276 194.412 378.194 194.514 378.194 194.514L362.2 211.8L382.192 235.975H375.118L357.34 214.26V235.975H351.742V200.543C351.742 198.861 351.455 197.569 350.881 196.667C350.348 195.724 349.22 195.252 347.498 195.252C346.965 195.252 346.534 195.109 346.206 194.822C345.919 194.535 345.775 194.186 345.775 193.776C345.775 193.407 345.919 193.099 346.206 192.853C346.534 192.607 346.903 192.484 347.313 192.484H354.449C355.474 192.484 356.212 192.812 356.663 193.468C357.115 194.083 357.34 194.719 357.34 195.375ZM406.517 193.099V197.897C405.902 197.651 405.246 197.385 404.548 197.098C403.851 196.77 403.072 196.462 402.211 196.175C401.35 195.929 400.386 195.724 399.32 195.56C398.294 195.355 397.167 195.252 395.936 195.252C393.722 195.252 391.917 195.785 390.523 196.852C389.17 197.918 388.493 199.415 388.493 201.342C388.493 202.901 388.862 204.233 389.6 205.341C390.339 206.448 391.692 207.596 393.66 208.786C394.973 209.647 396.531 210.528 398.335 211.431C400.14 212.292 401.842 213.297 403.441 214.445C405.082 215.593 406.455 216.946 407.563 218.505C408.711 220.022 409.285 221.868 409.285 224.041C409.285 227.035 408.424 229.578 406.701 231.669C404.979 233.72 402.58 235.114 399.504 235.852C398.192 236.18 396.777 236.385 395.26 236.467C393.742 236.549 392.266 236.549 390.831 236.467C389.436 236.385 388.144 236.242 386.955 236.037C385.766 235.832 384.864 235.606 384.249 235.36C383.469 235.114 382.936 234.683 382.649 234.068C382.362 233.412 382.26 232.776 382.342 232.161C382.465 231.587 382.752 231.136 383.203 230.808C383.695 230.439 384.31 230.377 385.048 230.623C385.95 230.992 387.058 231.361 388.37 231.731C389.723 232.1 391.118 232.346 392.553 232.469C393.988 232.592 395.403 232.551 396.798 232.346C398.233 232.1 399.484 231.546 400.55 230.685C401.288 230.111 401.944 229.331 402.518 228.347C403.134 227.363 403.441 226.194 403.441 224.841C403.441 223.283 402.99 221.991 402.088 220.965C401.186 219.899 400.017 218.935 398.582 218.074C397.187 217.213 395.608 216.352 393.845 215.491C392.081 214.629 390.339 213.563 388.616 212.292C387.099 211.226 385.745 209.852 384.556 208.17C383.367 206.489 382.772 204.602 382.772 202.511C382.772 198.82 384.064 196.093 386.648 194.33C389.272 192.525 392.656 191.623 396.798 191.623C397.823 191.623 398.787 191.684 399.689 191.807C400.632 191.889 401.534 192.012 402.395 192.176C403.216 192.341 403.954 192.505 404.61 192.669C405.307 192.833 405.943 192.976 406.517 193.099Z" fill="#202122"/>
</svg>
