<svg width="41" height="40" viewBox="0 0 41 40" fill="none" xmlns="http://www.w3.org/2000/svg">
<path d="M20.3333 40C31.379 40 40.3333 31.0457 40.3333 20C40.3333 8.95431 31.379 0 20.3333 0C9.28759 0 0.333282 8.95431 0.333282 20C0.333282 31.0457 9.28759 40 20.3333 40Z" fill="#37AEE2"/>
<path opacity="0.6" d="M20.3333 40C31.379 40 40.3333 31.0457 40.3333 20C40.3333 8.95431 31.379 0 20.3333 0C9.28759 0 0.333282 8.95431 0.333282 20C0.333282 31.0457 9.28759 40 20.3333 40Z" fill="#37AEE2"/>
<path d="M29.8539 13.0199C29.7979 13.8279 29.3339 16.6559 28.8739 19.7159L27.4299 28.776C27.4299 28.776 27.3139 30.104 26.3339 30.336C25.3539 30.568 23.7379 29.528 23.4499 29.296C23.2179 29.124 19.1218 26.524 17.6218 25.256C17.2178 24.908 16.7578 24.216 17.6778 23.408C19.7538 21.5039 22.2379 19.1359 23.7379 17.6359C24.4299 16.9439 25.1219 15.3279 22.2379 17.2879L14.1018 22.772C14.1018 22.772 13.1778 23.348 11.4458 22.828C9.71375 22.308 7.69373 21.616 7.69373 21.616C7.69373 21.616 6.30972 20.7519 8.67374 19.8279L22.1219 14.2879C23.4499 13.7119 27.9499 11.8639 27.9499 11.8639C27.9499 11.8639 30.0259 11.0559 29.8539 13.0199Z" fill="#FDFDFF"/>
</svg>
