<svg width="40" height="40" viewBox="0 0 40 40" fill="none" xmlns="http://www.w3.org/2000/svg">
<circle cx="19.9999" cy="20" r="20" fill="#3484EF"/>
<path fill-rule="evenodd" clip-rule="evenodd" d="M31.2928 13.8569C31.4708 13.2929 31.2928 12.8829 30.5053 12.8829H27.8868C27.2263 12.8829 26.9213 13.2419 26.7433 13.6259C26.7433 13.6259 25.3963 16.9059 23.5153 19.0324C22.9053 19.6474 22.6258 19.8524 22.2953 19.8524C22.1173 19.8524 21.8883 19.6474 21.8883 19.0839V13.8304C21.8883 13.1644 21.6853 12.8569 21.1258 12.8569H17.0078C16.6008 12.8569 16.3468 13.1644 16.3468 13.4719C16.3468 14.1124 17.2873 14.2664 17.3888 16.0599V19.9569C17.3888 20.8024 17.2388 20.9569 16.9058 20.9569C16.0163 20.9569 13.8558 17.6514 12.5598 13.8849C12.3078 13.1389 12.0518 12.8569 11.3908 12.8569H8.74726C7.98476 12.8569 7.85776 13.2154 7.85776 13.5999C7.85776 14.2919 8.74726 17.7764 12.0008 22.3884C14.1613 25.5384 17.2368 27.2314 20.0073 27.2314C21.6853 27.2314 21.8883 26.8469 21.8883 26.2064V23.8234C21.8883 23.0549 22.0408 22.9269 22.5748 22.9269C22.9558 22.9269 23.6423 23.1314 25.1928 24.6434C26.9718 26.4369 27.2768 27.2569 28.2683 27.2569H30.8863C31.6488 27.2569 32.0048 26.8724 31.8013 26.1294C31.5728 25.3864 30.7083 24.3104 29.5898 23.0294C28.9798 22.3124 28.0648 21.5179 27.7853 21.1334C27.4043 20.6209 27.5058 20.4159 27.7853 19.9549C27.7598 19.9549 30.9628 15.3939 31.2928 13.8549" fill="#FDFDFF"/>
</svg>
