<svg width="40" height="40" viewBox="0 0 40 40" fill="none" xmlns="http://www.w3.org/2000/svg">
<path d="M19.9999 40C31.0456 40 39.9999 31.0457 39.9999 20C39.9999 8.95431 31.0456 0 19.9999 0C8.95424 0 -6.10352e-05 8.95431 -6.10352e-05 20C-6.10352e-05 31.0457 8.95424 40 19.9999 40Z" fill="#5FD440"/>
<path opacity="0.6" d="M19.9999 40C31.0456 40 39.9999 31.0457 39.9999 20C39.9999 8.95431 31.0456 0 19.9999 0C8.95424 0 -6.10352e-05 8.95431 -6.10352e-05 20C-6.10352e-05 31.0457 8.95424 40 19.9999 40Z" fill="#5FD440"/>
<path fill-rule="evenodd" clip-rule="evenodd" d="M19.9959 8.25195C13.5038 8.25195 8.23974 13.516 8.23974 20.0081C8.23974 22.2281 8.85575 24.3041 9.92776 26.0761L7.80774 32.3842L14.3158 30.3002C15.9998 31.2322 17.9358 31.7642 19.9959 31.7642C26.4879 31.7642 31.752 26.5001 31.752 20.0121C31.752 13.512 26.4879 8.25195 19.9959 8.25195ZM19.9959 29.8882C17.9878 29.8882 16.1198 29.2882 14.5598 28.2521L10.7638 29.4682L11.9998 25.8001C10.8158 24.1721 10.1198 22.1681 10.1198 20.0041C10.1198 14.556 14.5518 10.124 20.0039 10.124C25.4519 10.124 29.888 14.556 29.888 20.0041C29.8799 25.4521 25.4439 29.8882 19.9959 29.8882ZM25.9319 22.7121C26.0039 22.8321 26.0039 23.4081 25.7639 24.0801C25.5239 24.7521 24.3479 25.4001 23.8199 25.4481C23.2919 25.4961 23.2919 25.8801 20.3639 24.7281C17.4358 23.5761 15.5878 20.5721 15.4438 20.3801C15.2998 20.1881 14.2678 18.8201 14.2678 17.4C14.2678 15.984 15.0118 15.284 15.2758 14.996C15.5398 14.708 15.8518 14.636 16.0438 14.636C16.2358 14.636 16.4278 14.66 16.5958 14.66C16.7638 14.66 17.0038 14.564 17.2438 15.14C17.4838 15.716 18.0598 17.136 18.1318 17.28C18.2038 17.424 18.2518 17.592 18.1558 17.784C18.0598 17.976 18.0118 18.096 17.8678 18.264C17.7238 18.4321 17.5638 18.6401 17.4358 18.7681C17.2918 18.9121 17.1398 19.0681 17.3078 19.3561C17.4758 19.6441 18.0558 20.5881 18.9118 21.3521C20.0119 22.3321 20.9399 22.6361 21.2279 22.7801C21.5159 22.9241 21.6839 22.9001 21.8519 22.7081C22.0199 22.5161 22.5719 21.8681 22.7639 21.5801C22.9559 21.2921 23.1479 21.3401 23.4119 21.4361C23.6759 21.5321 25.0919 22.2281 25.3799 22.3721C25.6679 22.5201 25.8599 22.5921 25.9319 22.7121Z" fill="#FDFDFF"/>
</svg>
