<svg width="41" height="40" viewBox="0 0 41 40" fill="none" xmlns="http://www.w3.org/2000/svg">
<circle cx="20.6666" cy="20" r="20" fill="#E31E24"/>
<path d="M31.9488 15.2139C31.9488 13.205 30.4709 11.589 28.6448 11.589C26.1712 11.4734 23.6486 11.4287 21.0706 11.4287H20.2669C17.6952 11.4287 15.1681 11.4734 12.6945 11.5894C10.8729 11.5894 9.39502 13.2144 9.39502 15.2233C9.2834 16.812 9.23607 18.4013 9.23875 19.9905C9.23429 21.5798 9.28489 23.1705 9.39056 24.7627C9.39056 26.7716 10.8684 28.401 12.6901 28.401C15.2886 28.5215 17.9541 28.5751 20.6643 28.5707C23.3789 28.5796 26.037 28.523 28.6385 28.401C30.4646 28.401 31.9425 26.7716 31.9425 24.7627C32.0497 23.169 32.0988 21.5798 32.0943 19.9861C32.1044 18.3968 32.0559 16.8061 31.9488 15.2139ZM18.481 24.3699V15.5978L24.955 19.9816L18.481 24.3699Z" fill="#FDFDFF"/>
</svg>
